<svg width="185" height="80" viewBox="0 0 185 80" fill="none" xmlns="http://www.w3.org/2000/svg">
<g clip-path="url(#clip0_610_9257)">
<g clip-path="url(#clip1_610_9257)">
<path d="M67.3795 31.7185L58.974 27.2624C57.9418 26.714 56.7115 26.714 55.6791 27.2577L47.1862 31.7324C45.9052 32.5019 44.707 33.4097 44.6564 36.0549V38.1884H47.9604V35.2714L57.3289 30.2761L66.6283 35.2714V38.1884H69.9324V36.0549C69.8771 33.3959 68.6697 32.4927 67.3795 31.7185Z" fill="white"/>
<path d="M66.6237 44.8332L58.9787 49.1141V45.6579C61.6653 45.0267 63.4349 42.8377 63.4349 39.9115C63.4349 36.3632 60.9832 33.9808 57.3289 33.9808C53.6746 33.9808 51.2231 36.3632 51.2231 39.9115C51.2231 42.8423 52.988 45.0267 55.6791 45.6579V49.1187L47.965 44.8332V41.6442H44.6564V43.7733C44.7116 46.4137 45.9052 47.3262 47.1862 48.0958L55.6791 52.5703C56.7115 53.1141 57.9465 53.1141 58.974 52.5658L67.3749 48.1096C68.6651 47.34 69.8771 46.4322 69.9278 43.7733V41.6442H66.6237V44.8332ZM54.2922 39.9115C54.2922 37.9668 55.3704 36.8978 57.3289 36.8978C59.2874 36.8978 60.3658 37.9668 60.3658 39.9115C60.3658 41.7963 59.2321 42.9254 57.3289 42.9254C55.4257 42.9254 54.2922 41.8009 54.2922 39.9115Z" fill="white"/>
<path d="M127.719 32.7367H123.116L117.199 38.801V29.7459H113.401V48.0819H117.199V43.4923L119.153 41.4923L124.304 48.0819H128.567L121.521 39.073L127.719 32.7367Z" fill="white"/>
<path d="M140.102 32.3356C136.456 32.3356 134.526 33.8286 133.807 34.5475V32.7227H129.95V32.7319V48.0818H133.807V35.7595L140.816 35.7318L140.802 32.3356C140.585 32.3356 140.351 32.3356 140.102 32.3356Z" fill="white"/>
<path d="M104.867 32.3314C101.955 32.3314 100.125 34.2161 99.9917 34.3636V32.7231H96.1346V32.7277V48.0823H99.9917V35.4189C100.356 35.4189 102.522 35.4189 102.858 35.4189C103.005 35.4189 103.148 35.4235 103.287 35.4281C104.25 35.4604 104.982 35.6171 105.526 35.9028C105.706 36.0042 105.872 36.1193 106.024 36.2438C106.839 36.9719 107.056 38.2115 107.056 40.0594C107.056 41.4788 107.056 48.0869 107.056 48.0869H110.854V38.912C110.849 35.1102 109.107 32.3314 104.867 32.3314Z" fill="white"/>
<path d="M89.568 34.8243C89.0932 34.1562 88.5356 33.6308 87.8812 33.2345C86.7431 32.6493 85.4528 32.3175 84.0841 32.3175C79.5359 32.3175 75.8446 35.9534 75.8446 40.4326C75.8446 43.8149 77.9459 46.7135 80.9322 47.9301C81.9044 48.3264 82.9689 48.5476 84.0841 48.5476C84.7846 48.5476 85.4666 48.4601 86.1163 48.2988C86.1348 48.2942 86.1533 48.2896 86.1716 48.2849C86.2408 48.2666 86.3053 48.2481 86.3698 48.2297C86.6555 48.1421 86.9274 48.0454 87.1809 47.9301C88.319 47.4278 89.1255 46.672 89.568 45.8195V48.0775H93.425V32.7184H89.568V34.8243ZM84.7524 45.3864C81.7477 45.3864 79.8031 43.3588 79.8031 40.4372C79.8031 37.3358 81.6925 35.4879 84.7524 35.4879C87.4482 35.4879 89.7016 37.2805 89.7016 40.4372C89.7016 43.5293 87.3697 45.3864 84.7524 45.3864Z" fill="white"/>
</g>
</g>
<defs>
<clipPath id="clip0_610_9257">
<rect width="185" height="80" fill="white"/>
</clipPath>
<clipPath id="clip1_610_9257">
<rect width="97.0001" height="27.103" fill="white" transform="translate(43.9999 26.4026)"/>
</clipPath>
</defs>
</svg>
