<svg width="185" height="80" viewBox="0 0 185 80" fill="none" xmlns="http://www.w3.org/2000/svg">
<g clip-path="url(#clip0_610_9267)">
<path d="M19.7459 35.5716H22.2163V46.1282H19.7459V41.6631H14.5443V46.1282H12.0893V35.5716H14.5443V40.0213H19.7459V35.5716ZM33.1134 35.5563L29.2774 40.8346V46.1282H26.807V40.8346L22.971 35.5563H25.4414L28.0499 39.1467L30.643 35.5563H33.1134ZM40.8276 35.5716C41.4516 35.5716 42.0245 35.725 42.5462 36.0319C43.0781 36.3388 43.4975 36.7531 43.8044 37.2748C44.1112 37.7965 44.2647 38.3693 44.2647 38.9933C44.2647 39.6173 44.1112 40.1952 43.8044 40.7272C43.4975 41.2489 43.0781 41.6631 42.5462 41.97C42.0245 42.2769 41.4516 42.4303 40.8276 42.4303H36.3165V46.1282H33.8615V35.5716H40.8276ZM40.0144 40.7885C40.5054 40.7885 40.9248 40.6146 41.2726 40.2668C41.6204 39.919 41.7943 39.4945 41.7943 38.9933C41.7943 38.5023 41.6204 38.0829 41.2726 37.7351C40.9248 37.3873 40.5054 37.2134 40.0144 37.2134H36.3165V40.7885H40.0144ZM49.8184 37.2134C49.4707 37.2134 49.1433 37.3004 48.8364 37.4742C48.5398 37.6481 48.2994 37.8885 48.1153 38.1954C47.9414 38.4921 47.8544 38.8194 47.8544 39.1774V40.0213H55.5264V41.6631H47.8544V42.5071C47.8544 42.8651 47.9414 43.1975 48.1153 43.5044C48.2994 43.8011 48.5398 44.0363 48.8364 44.2102C49.1433 44.3841 49.4707 44.4711 49.8184 44.4711H55.5264V46.1282H49.0052C48.3505 46.1282 47.747 45.9646 47.1946 45.6372C46.6423 45.3099 46.2024 44.87 45.8751 44.3176C45.558 43.7653 45.3994 43.1617 45.3994 42.5071V39.1774C45.3994 38.5227 45.558 37.9192 45.8751 37.3668C46.2024 36.8145 46.6423 36.3797 47.1946 36.0626C47.747 35.7353 48.3505 35.5716 49.0052 35.5716H55.5264V37.2134H49.8184ZM67.1906 38.9933C67.1906 39.6377 67.0321 40.2259 66.715 40.7578C66.3979 41.2898 65.9682 41.7041 65.4261 42.0007L67.1906 46.1282H64.7356L63.1398 42.4303H59.2578V46.1282H56.7875V35.5716H63.7536C64.3776 35.5716 64.9504 35.725 65.4721 36.0319C66.004 36.3388 66.4234 36.7531 66.7303 37.2748C67.0372 37.7965 67.1906 38.3693 67.1906 38.9933ZM59.2578 40.7885H62.9404C63.4314 40.7885 63.8508 40.6146 64.1986 40.2668C64.5566 39.919 64.7356 39.4945 64.7356 38.9933C64.7356 38.5023 64.5566 38.0829 64.1986 37.7351C63.8508 37.3873 63.4314 37.2134 62.9404 37.2134H59.2578V40.7885ZM70.7376 46.1282H68.2826V35.5869H70.7376V46.1282ZM71.9177 37.9806C71.9177 37.551 72.0251 37.152 72.2399 36.7838C72.4547 36.4053 72.7462 36.1086 73.1145 35.8938C73.4827 35.679 73.8868 35.5716 74.3266 35.5716H79.651C80.0806 35.5716 80.4796 35.6841 80.8478 35.9092C81.2161 36.124 81.5076 36.4155 81.7224 36.7838C81.9475 37.152 82.06 37.551 82.06 37.9806V43.7192C82.06 44.1591 81.9526 44.5631 81.7378 44.9314C81.5229 45.2894 81.2263 45.5758 80.8478 45.7907C80.4796 46.0055 80.0806 46.1129 79.651 46.1129H74.3266C73.8868 46.1129 73.4827 46.0055 73.1145 45.7907C72.7462 45.5758 72.4547 45.2894 72.2399 44.9314C72.0251 44.5631 71.9177 44.1591 71.9177 43.7192V37.9806ZM78.3621 44.4711C78.6997 44.4711 78.9861 44.3483 79.2214 44.1028C79.4669 43.8573 79.5896 43.5658 79.5896 43.2282V38.4563C79.5896 38.1085 79.4669 37.8169 79.2214 37.5817C78.9861 37.3362 78.6997 37.2134 78.3621 37.2134H75.6309C75.2831 37.2134 74.9864 37.3362 74.7409 37.5817C74.4954 37.8169 74.3727 38.1085 74.3727 38.4563V43.2282C74.3727 43.576 74.4954 43.8727 74.7409 44.1182C74.9864 44.3534 75.2831 44.4711 75.6309 44.4711H78.3621ZM90.8168 35.5716H93.2718V46.1282H90.8168L85.5999 38.9473V46.1282H83.1448V35.5716H85.5999L90.8168 42.7526V35.5716ZM113.86 46.1282H106.863C106.291 46.1282 105.764 45.9901 105.283 45.7139C104.812 45.4275 104.434 45.0439 104.148 44.5631C103.871 44.0824 103.733 43.5607 103.733 42.9981V38.6864C103.733 38.1238 103.871 37.6072 104.148 37.1367C104.434 36.6559 104.812 36.2774 105.283 36.0012C105.764 35.7148 106.291 35.5716 106.863 35.5716H113.86V37.2134H107.692C107.283 37.2134 106.935 37.3566 106.649 37.643C106.362 37.9192 106.219 38.267 106.219 38.6864V42.9981C106.219 43.4072 106.362 43.755 106.649 44.0414C106.935 44.3279 107.283 44.4711 107.692 44.4711H113.86V46.1282ZM123.821 46.1282L120.446 38.1187L117.745 44.4864H120.768L121.535 46.1282H114.6L119.08 35.5716H121.796L126.276 46.1282H123.821ZM133.985 35.5716C134.609 35.5716 135.182 35.725 135.704 36.0319C136.235 36.3388 136.655 36.7531 136.962 37.2748C137.269 37.7965 137.422 38.3693 137.422 38.9933C137.422 39.6173 137.269 40.1952 136.962 40.7272C136.655 41.2489 136.235 41.6631 135.704 41.97C135.182 42.2769 134.609 42.4303 133.985 42.4303H129.474V46.1282H127.019V35.5716H133.985ZM133.172 40.7885C133.663 40.7885 134.082 40.6146 134.43 40.2668C134.778 39.919 134.952 39.4945 134.952 38.9933C134.952 38.5023 134.778 38.0829 134.43 37.7351C134.082 37.3873 133.663 37.2134 133.172 37.2134H129.474V40.7885H133.172ZM141.104 46.1282H138.649V35.5563H141.104V46.1282ZM152.135 35.5563V37.2134H148.299V46.1282H145.828V37.2134H141.992V35.5563H152.135ZM161.627 46.1282L158.251 38.1187L155.551 44.4864H158.573L159.34 46.1282H152.405L156.885 35.5716H159.601L164.082 46.1282H161.627ZM172.788 46.1282H168.445C167.791 46.1282 167.182 45.9646 166.619 45.6372C166.067 45.3099 165.627 44.87 165.3 44.3176C164.983 43.7653 164.824 43.1617 164.824 42.5071V35.5716H167.295V42.5071C167.295 43.0492 167.484 43.5146 167.862 43.9034C168.251 44.2818 168.716 44.4711 169.259 44.4711H172.788V46.1282Z" fill="white"/>
</g>
<defs>
<clipPath id="clip0_610_9267">
<rect width="185" height="80" fill="white"/>
</clipPath>
</defs>
</svg>
