<svg width="185" height="80" viewBox="0 0 185 80" fill="none" xmlns="http://www.w3.org/2000/svg">
<g clip-path="url(#clip0_610_9294)">
<g clip-path="url(#clip1_610_9294)">
<path d="M71.5565 21.5322L69.9385 16.412V21.5322H69.1151V15.659H70.4957L71.9929 20.5524L73.4901 15.659H74.8734V21.5322H74.0501V16.412L72.4307 21.5322H71.5565Z" fill="white"/>
<path d="M77.4935 21.5322H76.67V15.659H77.4935V21.5322Z" fill="white"/>
<path d="M81.1659 15.5531C82.2268 15.5531 83.1572 16.0313 83.3919 17.1568H82.5904C82.3969 16.4848 81.7162 16.2498 81.1344 16.2498C80.6815 16.2498 79.8883 16.4518 79.8883 17.1086C79.8883 17.6268 80.3 17.8865 80.849 18.0074L81.5227 18.164C82.4203 18.3578 83.4962 18.6986 83.4962 19.8804C83.4962 21.0237 82.4285 21.6393 81.2634 21.6393C79.88 21.6393 79.0059 20.8781 78.8522 19.7155H79.6619C79.8156 20.5249 80.3658 20.9523 81.2798 20.9523C82.154 20.9523 82.6522 20.54 82.6522 19.9629C82.6522 19.3403 82.1252 19.0971 81.3896 18.9267L80.6609 18.7728C79.8512 18.5942 79.0511 18.1407 79.0511 17.1678C79.047 16.0313 80.2204 15.5531 81.1659 15.5531Z" fill="white"/>
<path d="M86.8374 15.5531C87.8968 15.5531 88.8273 16.0313 89.0619 17.1568H88.2673C88.0738 16.4848 87.3945 16.2498 86.8113 16.2498C86.3584 16.2498 85.5653 16.4518 85.5653 17.1086C85.5653 17.6268 85.9701 17.8865 86.5259 18.0074L87.1929 18.164C88.0903 18.3578 89.1676 18.6986 89.1676 19.8804C89.1676 21.0237 88.0985 21.6393 86.9335 21.6393C85.5501 21.6393 84.676 20.8781 84.5222 19.7155H85.3319C85.4856 20.5249 86.036 20.9523 86.9499 20.9523C87.824 20.9523 88.3223 20.54 88.3223 19.9629C88.3223 19.3403 87.7953 19.0971 87.0597 18.9267L86.331 18.7728C85.5227 18.5942 84.7213 18.1407 84.7213 17.1678C84.7171 16.0313 85.8904 15.5531 86.8374 15.5531Z" fill="white"/>
<path d="M91.3746 21.5322H90.5511V15.659H91.3746V21.5322Z" fill="white"/>
<path d="M95.6388 21.638C93.9564 21.638 92.8942 20.3655 92.8942 18.5914C92.8942 16.8174 93.9564 15.5531 95.6388 15.5531C97.3213 15.5531 98.3835 16.8174 98.3835 18.5914C98.3835 20.3655 97.3254 21.638 95.6388 21.638ZM95.6388 20.9412C96.7065 20.9412 97.5491 20.1071 97.5491 18.5914C97.5491 17.0757 96.7065 16.2553 95.6388 16.2553C94.5712 16.2553 93.7299 17.0798 93.7299 18.5914C93.7299 20.103 94.5629 20.9412 95.6388 20.9412Z" fill="white"/>
<path d="M103.412 21.5322L100.725 16.5151V21.5322H99.9021V15.659H101.115L103.794 20.6568V15.659H104.617V21.5322H103.412Z" fill="white"/>
<path d="M87.2429 36.6385C88.3023 36.6385 89.2327 37.1154 89.4674 38.2422H88.6673C88.4724 37.5703 87.7932 37.3353 87.2099 37.3353C86.757 37.3353 85.9639 37.5372 85.9639 38.1941C85.9639 38.7122 86.3756 38.9719 86.9245 39.0929L87.6106 39.2467C88.5095 39.4419 89.5854 39.7813 89.5854 40.9645C89.5854 42.1064 88.5177 42.7221 87.3527 42.7221C85.968 42.7221 85.0952 41.9607 84.9414 40.7982H85.7498C85.9035 41.609 86.4538 42.035 87.3677 42.035C88.2419 42.035 88.74 41.631 88.74 41.0469C88.74 40.423 88.2145 40.1799 87.4775 40.0094L86.7488 39.8555C85.9405 39.6782 85.139 39.2248 85.139 38.2518C85.1226 37.1154 86.2959 36.6385 87.2429 36.6385Z" fill="white"/>
<path d="M92.0876 37.4562H90.1774V36.743H94.8214V37.4562H92.9125V42.6245H92.089L92.0876 37.4562Z" fill="white"/>
<path d="M98.228 40.1386C98.0743 40.1468 97.9371 40.1468 97.7833 40.1468H96.7472V42.6204H95.9238V36.743H97.7847C99.2079 36.743 100.227 37.0274 100.227 38.4374C100.227 39.369 99.7829 39.8115 99.0625 40.008L100.422 42.619H99.5001L98.228 40.1386ZM96.7472 37.4397V39.4488H97.8451C98.7109 39.4488 99.3738 39.3608 99.3738 38.4525C99.3738 37.5441 98.7109 37.4397 97.8451 37.4397H96.7472Z" fill="white"/>
<path d="M101.82 36.743H105.799V37.4562H102.643V39.2427H105.614V39.9559H102.644V41.9086H105.801V42.6245H101.821L101.82 36.743Z" fill="white"/>
<path d="M107.182 36.743H111.162V37.4562H108.006V39.2427H110.975V39.9559H108.007V41.9086H111.164V42.6245H107.184L107.182 36.743Z" fill="white"/>
<path d="M113.758 37.4562H111.849V36.743H116.494V37.4562H114.584V42.6245H113.762L113.758 37.4562Z" fill="white"/>
<path d="M69.4116 57.8283L71.0392 62.8512L72.6324 57.8283H73.4984L71.5071 63.7015H70.5205L68.5059 57.8283H69.4116Z" fill="white"/>
<path d="M75.093 57.8283H79.0728V58.5417H75.9164V60.3279H78.8862V61.0389H75.9164V62.9897H79.0728V63.7015H75.093V57.8283Z" fill="white"/>
<path d="M84.3786 63.7015L81.6915 58.6874V63.7015H80.868V57.8283H82.0827L84.7587 62.825V57.8283H85.5821V63.7015H84.3786Z" fill="white"/>
<path d="M89.0046 58.5417H87.0957V57.8283H91.7397V58.5417H89.8307V63.7015H89.0074L89.0046 58.5417Z" fill="white"/>
<path d="M93.9871 57.8283V61.4015C93.9871 62.5598 94.3988 63.0942 95.4967 63.0942C96.6206 63.0942 97.0337 62.4703 97.0337 61.3081V57.8283H97.8571V61.2471C97.8571 62.9652 97.2025 63.8076 95.4953 63.8076C93.8691 63.8076 93.1624 63.1441 93.1624 61.312V57.8283H93.9871Z" fill="white"/>
<path d="M102.287 61.2226C102.134 61.2313 101.996 61.2313 101.843 61.2313H100.807V63.7047H99.9834V57.8283H101.844C103.269 57.8283 104.287 58.111 104.287 59.5211C104.287 60.453 103.842 60.8956 103.122 61.0935L104.482 63.7047H103.56L102.287 61.2226ZM100.807 58.5251V60.5345H101.905C102.771 60.5345 103.433 60.4451 103.433 59.5377C103.433 58.6312 102.771 58.5251 101.905 58.5251H100.807Z" fill="white"/>
<path d="M106.292 57.8283H110.272V58.5417H107.115V60.3279H110.088V61.0389H107.117V62.9897H110.273V63.7015H106.293L106.292 57.8283Z" fill="white"/>
<path d="M113.944 57.7222C115.005 57.7222 115.935 58.2005 116.169 59.3263H115.368C115.175 58.6541 114.494 58.419 113.912 58.419C113.459 58.419 112.666 58.6225 112.666 59.278C112.666 59.7966 113.07 60.0563 113.627 60.1782L114.306 60.3326C115.203 60.5258 116.279 60.8671 116.279 62.0499C116.279 63.1916 115.211 63.8076 114.047 63.8076C112.663 63.8076 111.789 63.0459 111.635 61.8837H112.445C112.599 62.6928 113.149 63.1204 114.063 63.1204C114.937 63.1204 115.435 62.715 115.435 62.1323C115.435 61.5084 114.91 61.2653 114.173 61.0943L113.446 60.9407C112.636 60.7625 111.836 60.3089 111.836 59.3358C111.825 58.2005 112.997 57.7222 113.944 57.7222Z" fill="white"/>
<path d="M83.0017 36.7525H69.0424V42.6093H83.0017V36.7525Z" fill="white"/>
<path d="M116.493 15.5531H107.196V21.5516H116.493V15.5531Z" fill="white"/>
<path d="M116.493 26.1027H69.0424V31.9594H116.493V26.1027Z" fill="white"/>
<path d="M116.493 47.4039H69.0424V53.2608H116.493V47.4039Z" fill="white"/>
</g>
</g>
<defs>
<clipPath id="clip0_610_9294">
<rect width="185" height="80" fill="white"/>
</clipPath>
<clipPath id="clip1_610_9294">
<rect width="49.0882" height="48.2965" fill="white" transform="translate(67.9559 15.5531)"/>
</clipPath>
</defs>
</svg>
