<svg width="185" height="80" viewBox="0 0 185 80" fill="none" xmlns="http://www.w3.org/2000/svg">
<rect width="38.9869" height="14.0953" transform="translate(27.4116 26.3517)" fill="white"/>
<path d="M29.2267 37.7508V29.443H32.3721L35.5858 34.3434H35.677L35.6086 32.0072V29.443H38.1955V37.7508H35.0957L31.882 32.9189H31.7795L31.8592 35.1753V37.7508H29.2267ZM39.4209 37.7508V29.443H46.6917V31.483H41.5178L42.0307 30.9701V33.1468L41.5178 32.634H46.1219V34.5371H41.5178L42.0307 34.0243V36.2238L41.5178 35.7109H46.7259V37.7508H39.4209ZM46.973 37.7508L50.3576 33.4431L47.1895 29.443H50.4488L52.0101 31.7223L52.1126 31.7337L53.6967 29.443H56.8762L53.7765 33.3633L57.0586 37.7508H53.7993L52.0215 35.2893H51.9189L50.0727 37.7508H46.973ZM59.6344 37.7508V31.5057H57.1158V29.443H64.8196V31.5057H62.2327V37.7508H59.6344Z" fill="black"/>
<path d="M28.1366 54.4459V44.659H31.2109V52.553L30.6068 51.9488H35.6412V54.4459H28.1366ZM36.5142 54.4459V44.659H45.0794V47.0621H38.9844L39.5885 46.4579V49.0221L38.9844 48.418H44.4082V50.66H38.9844L39.5885 50.0559V52.6469L38.9844 52.0428H45.1197V54.4459H36.5142ZM45.4108 54.4459L49.3309 44.659H53.3316L57.2786 54.4459H53.9357L53.345 52.7812H49.304L48.7268 54.4459H45.4108ZM50.123 50.5123H52.5395L51.7474 48.2166L51.3715 47.1023H51.2775L50.9285 48.1898L50.123 50.5123ZM57.9367 54.4459V44.659H62.8772C64.0586 44.659 65.0342 44.8648 65.8039 45.2765C66.5825 45.6793 67.1598 46.2476 67.5357 46.9815C67.9206 47.7154 68.113 48.5746 68.113 49.5592C68.113 50.3736 67.9877 51.0896 67.7371 51.7072C67.4954 52.3158 67.1464 52.8259 66.6899 53.2376C66.2335 53.6404 65.683 53.9447 65.0386 54.1506C64.3942 54.3475 63.6737 54.4459 62.8772 54.4459H57.9367ZM60.9977 52.0965H62.2462C62.7564 52.0965 63.186 52.0428 63.535 51.9354C63.893 51.8191 64.1794 51.649 64.3942 51.4252C64.609 51.2015 64.7657 50.9285 64.8641 50.6063C64.9626 50.2841 65.0118 49.9172 65.0118 49.5054C65.0118 48.8521 64.8954 48.3464 64.6627 47.9884C64.43 47.6304 64.1033 47.3798 63.6827 47.2366C63.271 47.0844 62.7922 47.0084 62.2462 47.0084H60.9977V52.0965ZM69.1331 54.4459V44.659H77.6983V47.0621H71.6033L72.2075 46.4579V49.0221L71.6033 48.418H77.0271V50.66H71.6033L72.2075 50.0559V52.6469L71.6033 52.0428H77.7386V54.4459H69.1331ZM78.8217 54.4459V44.659H84.7825C85.3195 44.659 85.8252 44.7082 86.2996 44.8066C86.7829 44.9051 87.208 45.0707 87.5749 45.3034C87.9419 45.5271 88.2283 45.8359 88.4342 46.2297C88.649 46.6146 88.7564 47.0979 88.7564 47.6796C88.7564 48.2524 88.5953 48.7626 88.2731 49.2101C87.9598 49.6487 87.5212 49.9351 86.9574 50.0693V50.1633C87.4675 50.2528 87.8524 50.4542 88.1119 50.7674C88.3715 51.0717 88.5013 51.5058 88.5013 52.0697V53.2242C88.5013 53.4211 88.5058 53.6225 88.5147 53.8283C88.5326 54.0342 88.5863 54.2401 88.6758 54.4459H85.588C85.5343 54.3296 85.494 54.1729 85.4672 53.976C85.4403 53.7791 85.4269 53.5375 85.4269 53.2511V52.4858C85.4269 52.2531 85.3911 52.0562 85.3195 51.8951C85.2479 51.7251 85.1226 51.5953 84.9436 51.5058C84.7646 51.4073 84.5095 51.3581 84.1784 51.3581H81.8961V54.4459H78.8217ZM81.8961 49.1832H84.1515C84.7333 49.1832 85.1271 49.0758 85.3329 48.861C85.5388 48.6462 85.6417 48.3643 85.6417 48.0153C85.6417 47.7378 85.5791 47.523 85.4538 47.3709C85.3285 47.2187 85.1539 47.1113 84.9302 47.0486C84.7064 46.986 84.4469 46.9547 84.1515 46.9547H81.8961V49.1832ZM97.759 54.5802C96.8461 54.5802 96.0361 54.4638 95.329 54.2311C94.622 53.9894 94.0223 53.6493 93.53 53.2108C93.0467 52.7633 92.6798 52.2308 92.4292 51.6132C92.1786 50.9956 92.0533 50.3065 92.0533 49.5457C92.0533 48.785 92.1786 48.0958 92.4292 47.4783C92.6798 46.8607 93.0467 46.3326 93.53 45.8941C94.0223 45.4555 94.622 45.1199 95.329 44.8872C96.0361 44.6455 96.8461 44.5247 97.759 44.5247C98.7972 44.5247 99.6967 44.6769 100.457 44.9812C101.218 45.2855 101.822 45.7061 102.27 46.2431C102.717 46.7801 102.981 47.4067 103.062 48.1227H99.9741C99.9025 47.881 99.7593 47.6707 99.5445 47.4917C99.3297 47.3127 99.0702 47.1739 98.7659 47.0755C98.4616 46.977 98.1259 46.9278 97.759 46.9278C97.2399 46.9278 96.7834 47.0218 96.3896 47.2097C95.9958 47.3888 95.6915 47.6707 95.4767 48.0555C95.2619 48.4404 95.1545 48.9371 95.1545 49.5457C95.1545 50.0022 95.2171 50.396 95.3424 50.7271C95.4677 51.0493 95.6423 51.3178 95.866 51.5326C96.0987 51.7474 96.3717 51.9086 96.685 52.016C97.0072 52.1144 97.3652 52.1636 97.759 52.1636C98.117 52.1636 98.4526 52.1144 98.7659 52.016C99.0791 51.9175 99.3431 51.7788 99.5579 51.5998C99.7817 51.4208 99.9294 51.2104 100.001 50.9688H103.062C102.981 51.6937 102.699 52.3292 102.216 52.8752C101.733 53.4122 101.106 53.8328 100.337 54.1371C99.5669 54.4325 98.7077 54.5802 97.759 54.5802ZM102.822 54.4459L106.742 44.659H110.742L114.689 54.4459H111.347L110.756 52.7812H106.715L106.138 54.4459H102.822ZM107.534 50.5123H109.95L109.158 48.2166L108.782 47.1023H108.688L108.339 48.1898L107.534 50.5123ZM115.348 54.4459V44.659H120.543C121.268 44.659 121.881 44.7395 122.382 44.9006C122.893 45.0528 123.309 45.2765 123.631 45.5719C123.953 45.8583 124.186 46.2029 124.329 46.6056C124.481 47.0084 124.557 47.4559 124.557 47.9481C124.557 48.7357 124.387 49.3712 124.047 49.8545C123.716 50.3378 123.251 50.6913 122.651 50.9151C122.051 51.1299 121.349 51.2373 120.543 51.2373H118.207V49.1161H120.207C120.512 49.1161 120.753 49.0758 120.932 48.9953C121.12 48.9147 121.255 48.7939 121.335 48.6328C121.425 48.4717 121.469 48.2793 121.469 48.0555C121.469 47.7781 121.411 47.5633 121.295 47.4111C121.188 47.259 121.04 47.156 120.852 47.1023C120.664 47.0397 120.449 47.0084 120.207 47.0084H117.818L118.422 46.4042V54.4459H115.348ZM125.534 54.4459V44.659H128.609V54.4459H125.534ZM132.447 54.4459V47.0889H129.48V44.659H138.556V47.0889H135.508V54.4459H132.447ZM137.027 54.4459L140.947 44.659H144.948L148.895 54.4459H145.552L144.961 52.7812H140.92L140.343 54.4459H137.027ZM141.739 50.5123H144.156L143.364 48.2166L142.988 47.1023H142.894L142.545 48.1898L141.739 50.5123ZM149.553 54.4459V44.659H152.627V52.553L152.023 51.9488H157.058V54.4459H149.553Z" fill="white"/>
<rect x="67.5991" y="26.3517" width="1.4995" height="14.0953" fill="white" fill-opacity="0.9"/>
<rect x="70.2986" y="26.3517" width="1.4995" height="14.0953" fill="white" fill-opacity="0.7"/>
<rect x="72.9966" y="26.3517" width="1.4995" height="14.0953" fill="white" fill-opacity="0.5"/>
</svg>
