<svg width="185" height="80" viewBox="0 0 185 80" fill="none" xmlns="http://www.w3.org/2000/svg">
<g clip-path="url(#clip0_610_9273)">
<g clip-path="url(#clip1_610_9273)">
<mask id="mask0_610_9273" style="mask-type:luminance" maskUnits="userSpaceOnUse" x="39" y="22" width="106" height="36">
<path d="M145 22.3556H39.9998V57.0735H145V22.3556Z" fill="white"/>
</mask>
<g mask="url(#mask0_610_9273)">
<path d="M87.9274 39.2913V31.2435H90.8674V29.699H83.2803V31.2435H86.2202V39.2913H87.9274ZM93.5094 39.2913V35.8094C93.5094 35.719 93.5296 35.5835 93.5703 35.4029C93.611 35.2222 93.6922 35.0416 93.8142 34.8609C93.9361 34.6803 94.1122 34.52 94.3426 34.38C94.5729 34.24 94.8777 34.17 95.2571 34.17C95.3835 34.17 95.5122 34.1812 95.6432 34.2038C95.7742 34.2264 95.9074 34.2558 96.0429 34.2919V32.7203C95.9435 32.6932 95.8464 32.6706 95.7516 32.6526C95.6568 32.6345 95.5596 32.6254 95.4603 32.6254C95.0267 32.6254 94.6429 32.7293 94.3087 32.9371C93.9745 33.1448 93.7171 33.4383 93.5364 33.8177H93.5094V32.7881H91.8835V39.2913H93.5094ZM99.0913 39.4539C99.5248 39.4539 99.9222 39.3703 100.284 39.2032C100.645 39.0361 100.943 38.7674 101.178 38.3971H101.218V39.2913H102.682V35.5519C102.682 35.3983 102.677 35.22 102.668 35.0167C102.659 34.8135 102.63 34.6035 102.58 34.3868C102.53 34.17 102.449 33.9554 102.336 33.7432C102.223 33.5309 102.063 33.3435 101.855 33.1809C101.647 33.0183 101.385 32.8851 101.069 32.7813C100.753 32.6774 100.365 32.6254 99.9042 32.6254C99.3893 32.6254 98.8903 32.7067 98.407 32.8693C97.9238 33.0319 97.5016 33.2983 97.1403 33.6687L97.9938 34.5222C98.2106 34.3145 98.4681 34.1496 98.7661 34.0277C99.0642 33.9058 99.3848 33.8448 99.728 33.8448C100.162 33.8448 100.518 33.9464 100.798 34.1496C101.078 34.3529 101.218 34.6577 101.218 35.0642V35.2403H100.812C100.541 35.2403 100.252 35.2471 99.9448 35.2606C99.6378 35.2741 99.3329 35.3058 99.0303 35.3555C98.7277 35.4051 98.4365 35.4797 98.1564 35.579C97.8764 35.6783 97.6303 35.8116 97.418 35.9787C97.2058 36.1458 97.0364 36.3535 96.91 36.6019C96.7835 36.8503 96.7203 37.1506 96.7203 37.5029C96.7203 37.828 96.7881 38.1126 96.9235 38.3564C97.059 38.6003 97.2374 38.8035 97.4587 38.9661C97.68 39.1287 97.9329 39.2506 98.2174 39.3319C98.5019 39.4132 98.7932 39.4539 99.0913 39.4539ZM99.4842 38.2345C99.3487 38.2345 99.2132 38.2187 99.0777 38.1871C98.9423 38.1555 98.8203 38.1035 98.7119 38.0313C98.6035 37.959 98.5155 37.871 98.4477 37.7671C98.38 37.6632 98.3461 37.5345 98.3461 37.3809C98.3461 37.1461 98.4319 36.9632 98.6035 36.8323C98.7751 36.7012 98.9851 36.6019 99.2335 36.5342C99.482 36.4664 99.7461 36.4235 100.026 36.4054C100.306 36.3874 100.559 36.3784 100.785 36.3784H101.124V36.7442C101.124 37.2048 100.99 37.5683 100.724 37.8348C100.457 38.1013 100.044 38.2345 99.4842 38.2345ZM106.055 39.2913V35.7416C106.055 35.5248 106.082 35.3171 106.136 35.1183C106.191 34.9197 106.279 34.7435 106.401 34.59C106.523 34.4364 106.676 34.3145 106.861 34.2242C107.046 34.1338 107.274 34.0887 107.545 34.0887C107.826 34.0887 108.047 34.1542 108.209 34.2851C108.372 34.4161 108.492 34.5787 108.568 34.7728C108.645 34.9671 108.692 35.1748 108.711 35.3961C108.728 35.6174 108.738 35.8184 108.738 35.999V39.2913H110.364V35.1861C110.364 34.8519 110.323 34.5312 110.242 34.2242C110.16 33.9171 110.025 33.6461 109.835 33.4113C109.645 33.1764 109.399 32.9867 109.097 32.8423C108.794 32.6977 108.426 32.6254 107.993 32.6254C107.451 32.6254 107.022 32.7451 106.706 32.9845C106.389 33.2239 106.155 33.5061 106.001 33.8313H105.974V32.7881H104.429V39.2913H106.055ZM115.417 39.4539C115.561 39.4539 115.734 39.4381 115.932 39.4064C116.13 39.3748 116.339 39.3229 116.555 39.2506C116.772 39.1784 116.986 39.0835 117.199 38.9661C117.411 38.8487 117.598 38.7087 117.761 38.5461L116.677 37.3809C116.524 37.5797 116.339 37.731 116.122 37.8348C115.905 37.9387 115.67 37.9906 115.417 37.9906C115.119 37.9906 114.853 37.9364 114.618 37.828C114.383 37.7197 114.182 37.5751 114.015 37.3945C113.847 37.2139 113.721 37.0061 113.636 36.7713C113.55 36.5364 113.507 36.2926 113.507 36.0396C113.507 35.7868 113.55 35.5429 113.636 35.3081C113.721 35.0732 113.847 34.8655 114.015 34.6848C114.182 34.5042 114.383 34.3596 114.618 34.2512C114.853 34.1429 115.119 34.0887 115.417 34.0887C115.634 34.0887 115.846 34.1474 116.054 34.2648C116.261 34.3822 116.461 34.5403 116.65 34.739L117.775 33.6145C117.458 33.2713 117.09 33.0206 116.67 32.8625C116.25 32.7045 115.833 32.6254 115.417 32.6254C114.929 32.6254 114.469 32.7067 114.035 32.8693C113.602 33.0319 113.227 33.2622 112.911 33.5603C112.595 33.8584 112.344 34.2174 112.159 34.6374C111.973 35.0574 111.881 35.5248 111.881 36.0396C111.881 36.5545 111.973 37.0219 112.159 37.4419C112.344 37.8619 112.595 38.221 112.911 38.519C113.227 38.8171 113.602 39.0474 114.035 39.21C114.469 39.3725 114.929 39.4539 115.417 39.4539ZM120.362 39.2913V35.7416C120.362 35.5248 120.389 35.3171 120.444 35.1183C120.498 34.9197 120.586 34.7435 120.707 34.59C120.83 34.4364 120.983 34.3145 121.169 34.2242C121.354 34.1338 121.582 34.0887 121.852 34.0887C122.132 34.0887 122.354 34.1542 122.516 34.2851C122.679 34.4161 122.799 34.5787 122.876 34.7728C122.952 34.9671 123 35.1748 123.018 35.3961C123.036 35.6174 123.045 35.8184 123.045 35.999V39.2913H124.671V35.1861C124.671 34.8519 124.63 34.5312 124.549 34.2242C124.468 33.9171 124.332 33.6461 124.142 33.4113C123.953 33.1764 123.707 32.9867 123.404 32.8423C123.102 32.6977 122.733 32.6254 122.3 32.6254C121.794 32.6254 121.381 32.7361 121.06 32.9574C120.739 33.1787 120.516 33.4248 120.389 33.6957H120.362V29.0487H118.736V39.2913H120.362ZM127.34 31.5551C127.638 31.5551 127.888 31.4625 128.092 31.2774C128.295 31.0922 128.396 30.8597 128.396 30.5796C128.396 30.2996 128.295 30.067 128.092 29.8819C127.888 29.6967 127.638 29.6041 127.34 29.6041C127.042 29.6041 126.796 29.7013 126.602 29.8954C126.407 30.0896 126.31 30.3177 126.31 30.5796C126.31 30.8416 126.407 31.0697 126.602 31.2639C126.796 31.458 127.042 31.5551 127.34 31.5551ZM128.166 39.2913V32.7881H126.54V39.2913H128.166ZM131.662 39.2913V35.7416C131.662 35.5248 131.689 35.3171 131.743 35.1183C131.797 34.9197 131.885 34.7435 132.007 34.59C132.129 34.4364 132.283 34.3145 132.468 34.2242C132.653 34.1338 132.881 34.0887 133.152 34.0887C133.432 34.0887 133.653 34.1542 133.816 34.2851C133.978 34.4161 134.098 34.5787 134.175 34.7728C134.252 34.9671 134.299 35.1748 134.317 35.3961C134.335 35.6174 134.344 35.8184 134.344 35.999V39.2913H135.97V35.1861C135.97 34.8519 135.929 34.5312 135.848 34.2242C135.767 33.9171 135.631 33.6461 135.442 33.4113C135.252 33.1764 135.006 32.9867 134.703 32.8423C134.4 32.6977 134.033 32.6254 133.599 32.6254C133.057 32.6254 132.628 32.7451 132.312 32.9845C131.996 33.2239 131.761 33.5061 131.607 33.8313H131.581V32.7881H130.036V39.2913H131.662ZM140.834 42.5429C141.466 42.5429 142.013 42.4526 142.473 42.2719C142.934 42.0913 143.316 41.8361 143.618 41.5064C143.921 41.1767 144.144 40.7749 144.289 40.3006C144.433 39.8264 144.505 39.2958 144.505 38.7087V32.7881H142.961V33.7636H142.934C142.699 33.3661 142.383 33.0771 141.985 32.8964C141.588 32.7158 141.159 32.6254 140.699 32.6254C140.193 32.6254 139.743 32.7135 139.35 32.8897C138.958 33.0658 138.621 33.3074 138.341 33.6145C138.061 33.9216 137.849 34.2829 137.704 34.6984C137.56 35.1139 137.487 35.5609 137.487 36.0396C137.487 36.5003 137.564 36.9339 137.718 37.3403C137.872 37.7468 138.09 38.099 138.375 38.3971C138.659 38.6951 139 38.9323 139.398 39.1084C139.795 39.2845 140.238 39.3725 140.725 39.3725C141.132 39.3725 141.53 39.2935 141.918 39.1355C142.306 38.9774 142.618 38.7403 142.852 38.4242H142.88V38.8984C142.88 39.2235 142.846 39.5193 142.778 39.7858C142.711 40.0522 142.597 40.2803 142.439 40.47C142.281 40.6597 142.069 40.8087 141.802 40.9171C141.536 41.0255 141.209 41.0797 140.82 41.0797C140.36 41.0797 139.953 40.9984 139.601 40.8358C139.249 40.6732 138.91 40.4429 138.585 40.1448L137.609 41.4725C138.07 41.879 138.572 42.159 139.114 42.3126C139.656 42.4661 140.229 42.5429 140.834 42.5429ZM141.024 37.9094C140.752 37.9094 140.499 37.8597 140.265 37.7603C140.03 37.6609 139.827 37.5255 139.656 37.3539C139.483 37.1823 139.35 36.9835 139.255 36.7577C139.161 36.5319 139.114 36.288 139.114 36.0261C139.114 35.7371 139.161 35.4729 139.255 35.2335C139.35 34.9942 139.481 34.7909 139.649 34.6238C139.816 34.4568 140.016 34.3258 140.251 34.231C140.486 34.1361 140.748 34.0887 141.037 34.0887C141.633 34.0887 142.103 34.2648 142.446 34.617C142.789 34.9693 142.961 35.43 142.961 35.999C142.961 36.27 142.916 36.5229 142.826 36.7577C142.736 36.9925 142.607 37.1935 142.439 37.3606C142.272 37.5277 142.069 37.6609 141.83 37.7603C141.591 37.8597 141.322 37.9094 141.024 37.9094ZM85.9628 52.8397V48.87H87.1822C87.688 48.87 88.1735 48.8339 88.6387 48.7617C89.1038 48.6894 89.5126 48.5517 89.8648 48.3484C90.217 48.1452 90.4971 47.8584 90.7048 47.4881C90.9125 47.1177 91.0164 46.63 91.0164 46.0248C91.0164 45.4919 90.9193 45.0471 90.7251 44.6903C90.5309 44.3336 90.2712 44.049 89.9461 43.8368C89.621 43.6245 89.2438 43.4732 88.8148 43.3829C88.3858 43.2926 87.9409 43.2474 87.4803 43.2474H84.2558V52.8397H85.9628ZM86.9925 47.4068H85.9628V44.7107H87.1822C87.408 44.7107 87.6428 44.7242 87.8867 44.7513C88.1306 44.7784 88.3519 44.8393 88.5506 44.9342C88.7493 45.0291 88.9119 45.1645 89.0383 45.3407C89.1648 45.5167 89.228 45.7539 89.228 46.052C89.228 46.3771 89.158 46.63 89.018 46.8107C88.878 46.9913 88.6974 47.1268 88.4761 47.2171C88.2548 47.3074 88.0132 47.3616 87.7512 47.3797C87.4893 47.3977 87.2364 47.4068 86.9925 47.4068ZM94.0106 52.8397V49.3577C94.0106 49.2674 94.0309 49.1319 94.0716 48.9513C94.1122 48.7707 94.1935 48.59 94.3154 48.4094C94.4374 48.2287 94.6135 48.0684 94.8439 47.9284C95.0741 47.7884 95.379 47.7184 95.7584 47.7184C95.8848 47.7184 96.0135 47.7297 96.1445 47.7523C96.2754 47.7748 96.4087 47.8042 96.5442 47.8404V46.2687C96.4448 46.2416 96.3477 46.219 96.2529 46.201C96.158 46.1829 96.061 46.1739 95.9616 46.1739C95.528 46.1739 95.1441 46.2778 94.81 46.4855C94.4758 46.6933 94.2184 46.9868 94.0377 47.3661H94.0106V46.3364H92.3848V52.8397H94.0106ZM100.866 53.0023C101.354 53.0023 101.814 52.921 102.248 52.7584C102.682 52.5959 103.056 52.3655 103.373 52.0674C103.689 51.7694 103.939 51.4103 104.125 50.9903C104.31 50.5703 104.402 50.1029 104.402 49.5881C104.402 49.0733 104.31 48.6059 104.125 48.1858C103.939 47.7658 103.689 47.4068 103.373 47.1087C103.056 46.8107 102.682 46.5803 102.248 46.4178C101.814 46.2552 101.354 46.1739 100.866 46.1739C100.378 46.1739 99.9177 46.2552 99.4842 46.4178C99.0506 46.5803 98.6758 46.8107 98.3596 47.1087C98.0435 47.4068 97.7929 47.7658 97.6077 48.1858C97.4226 48.6059 97.3299 49.0733 97.3299 49.5881C97.3299 50.1029 97.4226 50.5703 97.6077 50.9903C97.7929 51.4103 98.0435 51.7694 98.3596 52.0674C98.6758 52.3655 99.0506 52.5959 99.4842 52.7584C99.9177 52.921 100.378 53.0023 100.866 53.0023ZM100.866 51.5391C100.568 51.5391 100.302 51.4849 100.067 51.3765C99.8319 51.2681 99.631 51.1235 99.4639 50.9429C99.2967 50.7623 99.1703 50.5545 99.0845 50.3197C98.9987 50.0848 98.9558 49.841 98.9558 49.5881C98.9558 49.3351 98.9987 49.0913 99.0845 48.8565C99.1703 48.6217 99.2967 48.4139 99.4639 48.2332C99.631 48.0526 99.8319 47.9081 100.067 47.7997C100.302 47.6913 100.568 47.6371 100.866 47.6371C101.164 47.6371 101.431 47.6913 101.665 47.7997C101.9 47.9081 102.101 48.0526 102.268 48.2332C102.435 48.4139 102.562 48.6217 102.648 48.8565C102.734 49.0913 102.776 49.3351 102.776 49.5881C102.776 49.841 102.734 50.0848 102.648 50.3197C102.562 50.5545 102.435 50.7623 102.268 50.9429C102.101 51.1235 101.9 51.2681 101.665 51.3765C101.431 51.4849 101.164 51.5391 100.866 51.5391ZM108.629 53.0023C108.819 53.0023 109.038 52.9865 109.287 52.9549C109.535 52.9233 109.745 52.8668 109.917 52.7855V51.4172C109.817 51.4893 109.681 51.5413 109.51 51.573C109.338 51.6046 109.18 51.6204 109.036 51.6204C108.675 51.6204 108.433 51.5255 108.311 51.3358C108.189 51.1461 108.128 50.8887 108.128 50.5636V47.7184H109.917V46.3364H108.128V44.4532H106.502V46.3364H105.161V47.7184H106.502V50.6991C106.502 51.0784 106.532 51.4126 106.59 51.7016C106.649 51.9906 106.757 52.2323 106.915 52.4264C107.073 52.6207 107.29 52.7652 107.566 52.86C107.841 52.9549 108.196 53.0023 108.629 53.0023ZM114.401 53.0023C114.889 53.0023 115.35 52.921 115.783 52.7584C116.217 52.5959 116.592 52.3655 116.908 52.0674C117.224 51.7694 117.474 51.4103 117.659 50.9903C117.844 50.5703 117.937 50.1029 117.937 49.5881C117.937 49.0733 117.844 48.6059 117.659 48.1858C117.474 47.7658 117.224 47.4068 116.908 47.1087C116.592 46.8107 116.217 46.5803 115.783 46.4178C115.35 46.2552 114.889 46.1739 114.401 46.1739C113.913 46.1739 113.453 46.2552 113.019 46.4178C112.586 46.5803 112.211 46.8107 111.895 47.1087C111.578 47.4068 111.328 47.7658 111.142 48.1858C110.957 48.6059 110.865 49.0733 110.865 49.5881C110.865 50.1029 110.957 50.5703 111.142 50.9903C111.328 51.4103 111.578 51.7694 111.895 52.0674C112.211 52.3655 112.586 52.5959 113.019 52.7584C113.453 52.921 113.913 53.0023 114.401 53.0023ZM114.401 51.5391C114.103 51.5391 113.836 51.4849 113.602 51.3765C113.367 51.2681 113.166 51.1235 112.999 50.9429C112.831 50.7623 112.705 50.5545 112.62 50.3197C112.534 50.0848 112.491 49.841 112.491 49.5881C112.491 49.3351 112.534 49.0913 112.62 48.8565C112.705 48.6217 112.831 48.4139 112.999 48.2332C113.166 48.0526 113.367 47.9081 113.602 47.7997C113.836 47.6913 114.103 47.6371 114.401 47.6371C114.699 47.6371 114.966 47.6913 115.2 47.7997C115.435 47.9081 115.636 48.0526 115.803 48.2332C115.97 48.4139 116.097 48.6217 116.183 48.8565C116.269 49.0913 116.311 49.3351 116.311 49.5881C116.311 49.841 116.269 50.0848 116.183 50.3197C116.097 50.5545 115.97 50.7623 115.803 50.9429C115.636 51.1235 115.435 51.2681 115.2 51.3765C114.966 51.4849 114.699 51.5391 114.401 51.5391ZM122.666 53.0023C122.81 53.0023 122.982 52.9865 123.18 52.9549C123.379 52.9233 123.587 52.8713 123.804 52.7991C124.021 52.7268 124.235 52.632 124.447 52.5145C124.66 52.3971 124.847 52.2571 125.01 52.0946L123.926 50.9294C123.772 51.1281 123.587 51.2793 123.37 51.3832C123.153 51.4872 122.919 51.5391 122.666 51.5391C122.368 51.5391 122.101 51.4849 121.866 51.3765C121.631 51.2681 121.43 51.1235 121.263 50.9429C121.096 50.7623 120.97 50.5545 120.884 50.3197C120.798 50.0848 120.755 49.841 120.755 49.5881C120.755 49.3351 120.798 49.0913 120.884 48.8565C120.97 48.6217 121.096 48.4139 121.263 48.2332C121.43 48.0526 121.631 47.9081 121.866 47.7997C122.101 47.6913 122.368 47.6371 122.666 47.6371C122.883 47.6371 123.094 47.6958 123.302 47.8132C123.51 47.9306 123.709 48.0887 123.899 48.2874L125.023 47.1629C124.707 46.8197 124.339 46.5691 123.918 46.411C123.499 46.2529 123.081 46.1739 122.666 46.1739C122.178 46.1739 121.717 46.2552 121.283 46.4178C120.85 46.5803 120.475 46.8107 120.159 47.1087C119.843 47.4068 119.592 47.7658 119.407 48.1858C119.222 48.6059 119.13 49.0733 119.13 49.5881C119.13 50.1029 119.222 50.5703 119.407 50.9903C119.592 51.4103 119.843 51.7694 120.159 52.0674C120.475 52.3655 120.85 52.5959 121.283 52.7584C121.717 52.921 122.178 53.0023 122.666 53.0023ZM129.196 53.0023C129.684 53.0023 130.144 52.921 130.578 52.7584C131.012 52.5959 131.386 52.3655 131.702 52.0674C132.018 51.7694 132.269 51.4103 132.454 50.9903C132.64 50.5703 132.732 50.1029 132.732 49.5881C132.732 49.0733 132.64 48.6059 132.454 48.1858C132.269 47.7658 132.018 47.4068 131.702 47.1087C131.386 46.8107 131.012 46.5803 130.578 46.4178C130.144 46.2552 129.684 46.1739 129.196 46.1739C128.708 46.1739 128.248 46.2552 127.814 46.4178C127.38 46.5803 127.006 46.8107 126.69 47.1087C126.374 47.4068 126.123 47.7658 125.938 48.1858C125.752 48.6059 125.66 49.0733 125.66 49.5881C125.66 50.1029 125.752 50.5703 125.938 50.9903C126.123 51.4103 126.374 51.7694 126.69 52.0674C127.006 52.3655 127.38 52.5959 127.814 52.7584C128.248 52.921 128.708 53.0023 129.196 53.0023ZM129.196 51.5391C128.898 51.5391 128.632 51.4849 128.396 51.3765C128.162 51.2681 127.961 51.1235 127.793 50.9429C127.626 50.7623 127.5 50.5545 127.414 50.3197C127.329 50.0848 127.285 49.841 127.285 49.5881C127.285 49.3351 127.329 49.0913 127.414 48.8565C127.5 48.6217 127.626 48.4139 127.793 48.2332C127.961 48.0526 128.162 47.9081 128.396 47.7997C128.632 47.6913 128.898 47.6371 129.196 47.6371C129.494 47.6371 129.76 47.6913 129.996 47.7997C130.23 47.9081 130.431 48.0526 130.598 48.2332C130.765 48.4139 130.892 48.6217 130.978 48.8565C131.063 49.0913 131.107 49.3351 131.107 49.5881C131.107 49.841 131.063 50.0848 130.978 50.3197C130.892 50.5545 130.765 50.7623 130.598 50.9429C130.431 51.1235 130.23 51.2681 129.996 51.3765C129.76 51.4849 129.494 51.5391 129.196 51.5391ZM135.903 52.8397V42.5971H134.276V52.8397H135.903Z" fill="white"/>
<path d="M72.0334 49.7086L67.2441 44.6744L48.0209 54.3598L47.9693 52.0647L67.1367 42.4057L71.9874 47.5012L72.0334 49.7086ZM40.0721 46.4124L41.4573 45.7173L42.8072 47.133L43.1752 47.5214L44.5037 48.9167L44.6882 49.1104L44.8722 49.3052L47.458 52.019L47.5096 54.232L43.487 50.0002L43.303 49.8106L43.1185 49.6163L41.7901 48.2222L41.422 47.8327L40.0721 46.4124ZM75.264 46.1521L76.4344 45.5592L77.9321 47.1333L76.7616 47.7205L76.5265 47.8433L76.2862 47.9608L75.1873 48.5183L74.9521 48.6354L74.7119 48.758L72.555 49.8421L72.4987 47.5473L73.2138 47.1845L73.454 47.0613L73.6897 46.9442L74.7881 46.3923L75.0289 46.2696L75.264 46.1521ZM55.2429 32.0663L54.5069 31.2945L55.8966 30.5943L56.6281 31.366L55.2429 32.0663Z" fill="black"/>
<path d="M72.0334 49.7086L67.2441 44.6744L48.0209 54.3598L47.9693 52.0647L67.1367 42.4057L71.9874 47.5012L72.0334 49.7086ZM40.0721 46.4124L41.4573 45.7173L42.8072 47.133L43.1752 47.5214L44.5037 48.9167L44.6882 49.1104L44.8722 49.3052L47.458 52.019L47.5096 54.232L43.487 50.0002L43.303 49.8106L43.1185 49.6163L41.7901 48.2222L41.422 47.8327L40.0721 46.4124ZM75.264 46.1521L76.4344 45.5592L77.9321 47.1333L76.7616 47.7205L76.5265 47.8433L76.2862 47.9608L75.1873 48.5183L74.9521 48.6354L74.7119 48.758L72.555 49.8421L72.4987 47.5473L73.2138 47.1845L73.454 47.0613L73.6897 46.9442L74.7881 46.3923L75.0289 46.2696L75.264 46.1521ZM55.2429 32.0663L54.5069 31.2945L55.8966 30.5943L56.6281 31.366L55.2429 32.0663Z" fill="white" fill-opacity="0.5"/>
<path d="M71.967 46.7394L67.2441 41.7768L47.9541 51.4976L47.8978 48.8655L66.089 39.6967L66.3292 39.5792L66.5643 39.4564L67.0652 39.206L71.9107 44.3016L71.9312 45.0937L71.9358 45.4724L71.9465 45.8557L71.967 46.7394ZM74.8343 43.1365L76.22 42.4358L77.9323 44.2353L76.5466 44.935L76.3068 45.0525L76.0661 45.1757L74.8962 45.7635L74.6605 45.881L74.4203 46.0032L73.3219 46.5556L73.0862 46.6777L72.846 46.7959L72.4882 46.9747L72.4729 46.4074L72.4678 46.0241L72.458 45.6505L72.4269 44.3529L72.7131 44.2097L72.9482 44.0866L73.1885 43.9695L74.359 43.3767L74.5997 43.2591L74.8343 43.1365ZM56.1883 30.1652L56.0043 29.9709L54.5067 28.3968L56.04 27.625L57.5377 29.1992L57.7217 29.3929L57.9057 29.5825L58.6366 30.3542L57.1032 31.126L56.3723 30.3542L56.1883 30.1652ZM40.0721 43.5146L41.5907 42.7485L43.0878 44.317L43.2718 44.5163H43.2769L43.4558 44.7054L44.8108 46.1257L44.9948 46.3209L45.1783 46.5095L46.5073 47.9099L46.6913 48.1036L46.8758 48.2932L47.3869 48.8298L47.4426 51.2631L45.3521 49.0644L45.1686 48.8707L44.9841 48.6765L43.6552 47.2808L43.4712 47.0871L43.2871 46.8929L41.9378 45.472L41.7538 45.2829L41.5652 45.0836L40.0721 43.5146Z" fill="black"/>
<path d="M71.967 46.7394L67.2441 41.7768L47.954 51.4976L47.8978 48.8655L66.0889 39.6967L66.3292 39.5792L66.5643 39.4564L67.0652 39.206L71.9107 44.3016L71.9312 45.0937L71.9358 45.4724L71.9465 45.8557L71.967 46.7394ZM74.8343 43.1365L76.22 42.4358L77.9323 44.2353L76.5466 44.935L76.3068 45.0525L76.0661 45.1757L74.8962 45.7635L74.6605 45.881L74.4203 46.0032L73.3219 46.5556L73.0862 46.6777L72.846 46.7959L72.4882 46.9747L72.4728 46.4074L72.4677 46.0241L72.458 45.6505L72.4269 44.3529L72.7131 44.2097L72.9482 44.0866L73.1885 43.9695L74.3589 43.3766L74.5997 43.2591L74.8343 43.1365ZM56.1883 30.1652L56.0043 29.9709L54.5067 28.3968L56.04 27.625L57.5377 29.1992L57.7217 29.3929L57.9057 29.5825L58.6366 30.3542L57.1032 31.126L56.3723 30.3542L56.1883 30.1652ZM40.0721 43.5146L41.5907 42.7485L43.0878 44.317L43.2718 44.5163H43.2769L43.4558 44.7054L44.8108 46.1257L44.9948 46.3209L45.1783 46.5095L46.5073 47.9099L46.6913 48.1036L46.8758 48.2932L47.3869 48.8298L47.4426 51.2631L45.3521 49.0644L45.1686 48.8707L44.9841 48.6765L43.6552 47.2808L43.4712 47.0871L43.2871 46.8929L41.9378 45.472L41.7538 45.2829L41.5652 45.0836L40.0721 43.5146Z" fill="white" fill-opacity="0.7"/>
<path d="M72.0946 52.3358L67.3155 47.3119L48.0817 57.0019L48.0357 54.9266L67.1367 45.3033L72.0537 50.4703L72.0946 52.3358ZM40.1438 49.0498L41.3092 48.4616L42.6386 49.8568L43.0062 50.2457L47.5245 54.9883L47.5291 54.9989L47.5705 56.8538L41.8408 50.833L41.6567 50.6388L41.4727 50.4446L40.1438 49.0498ZM75.5546 48.9063L76.6592 48.3492L78.0034 49.7649L76.9045 50.322L76.6694 50.4401L76.4291 50.5627L72.611 52.4839L72.565 50.4089L75.0792 49.1465L75.3195 49.0233L75.5546 48.9063Z" fill="black"/>
<path d="M72.0946 52.3358L67.3155 47.3119L48.0817 57.0019L48.0357 54.9266L67.1367 45.3033L72.0537 50.4703L72.0946 52.3358ZM40.1438 49.0498L41.3092 48.4616L42.6386 49.8568L43.0062 50.2457L47.5245 54.9883L47.5291 54.9989L47.5705 56.8538L41.8408 50.833L41.6567 50.6388L41.4727 50.4446L40.1438 49.0498ZM75.5546 48.9063L76.6592 48.3492L78.0034 49.7649L76.9045 50.322L76.6694 50.4401L76.4291 50.5627L72.611 52.4839L72.565 50.4089L75.0792 49.1465L75.3195 49.0233L75.5546 48.9063Z" fill="white" fill-opacity="0.3"/>
<path fill-rule="evenodd" clip-rule="evenodd" d="M60.0775 22.3556L54.4346 25.2023L56.1464 26.9963L56.5144 27.3847L58.0125 28.9588L58.196 29.1479L58.3805 29.3421L59.4845 30.5023L57.4758 31.5143L57.2351 31.6369L56.9948 31.7549L55.6097 32.4546L55.3695 32.5773L55.1343 32.6948L39.9998 40.3202L41.7069 42.1141L41.8961 42.3083L42.0806 42.5025L43.5731 44.0716L43.7566 44.2709L43.9411 44.46L45.2956 45.8813L45.4791 46.075L45.6631 46.2692L46.9926 47.6644L47.176 47.8592L47.36 48.0477L47.6923 48.4005L65.7199 39.3129L65.9601 39.1907L66.1952 39.0732L67.172 38.5825L72.2117 43.8717L72.3344 43.8114L72.569 43.6882L72.8097 43.5707L73.9797 42.9835L74.2205 42.8603L74.4556 42.7376L75.8403 42.0421L76.0804 41.9199L76.3263 41.7973L77.8541 41.0306L60.0775 22.3556Z" fill="white"/>
</g>
</g>
</g>
<defs>
<clipPath id="clip0_610_9273">
<rect width="185" height="80" fill="white"/>
</clipPath>
<clipPath id="clip1_610_9273">
<rect width="105" height="34.7178" fill="white" transform="translate(39.9998 22.3556)"/>
</clipPath>
</defs>
</svg>
