<svg width="185" height="80" viewBox="0 0 185 80" fill="none" xmlns="http://www.w3.org/2000/svg">
<path d="M94.5312 48.9058H91.079V31.7441H94.5312V48.9058Z" fill="white"/>
<path d="M102.673 35.1789V42.0483H106.125C106.598 42.0483 107.043 41.9606 107.461 41.785C107.877 41.6015 108.242 41.3542 108.555 41.0431C108.868 40.7319 109.112 40.3689 109.289 39.954C109.473 39.5312 109.565 39.0843 109.565 38.6136C109.565 38.1428 109.473 37.7001 109.289 37.2852C109.112 36.8623 108.868 36.4953 108.555 36.1842C108.242 35.873 107.877 35.6296 107.461 35.4541C107.043 35.2706 106.598 35.1789 106.125 35.1789H102.673ZM102.673 48.9058H99.2208V31.7441H106.125C106.759 31.7441 107.368 31.8279 107.954 31.9955C108.539 32.1551 109.084 32.3864 109.589 32.6896C110.103 32.9848 110.568 33.3438 110.985 33.7666C111.41 34.1815 111.771 34.6443 112.067 35.155C112.372 35.6655 112.605 36.2121 112.765 36.7945C112.934 37.3769 113.018 37.9833 113.018 38.6136C113.018 39.555 112.837 40.4447 112.476 41.2824C112.116 42.1122 111.623 42.8382 110.997 43.4604C110.372 44.0828 109.638 44.5736 108.795 44.9326C107.962 45.2914 107.071 45.471 106.125 45.471H102.673V48.9058Z" fill="white"/>
<path d="M128.208 43.7598C128.208 44.4697 128.072 45.1359 127.8 45.7584C127.527 46.3806 127.154 46.9273 126.681 47.3978C126.215 47.8606 125.67 48.2278 125.044 48.499C124.419 48.7701 123.749 48.9058 123.036 48.9058H116.132V45.4711H123.036C123.277 45.4711 123.501 45.4272 123.71 45.3394C123.918 45.2517 124.099 45.1321 124.25 44.9805C124.411 44.8209 124.536 44.6373 124.624 44.4299C124.712 44.2224 124.756 43.9992 124.756 43.7598C124.756 43.5204 124.712 43.297 124.624 43.0894C124.536 42.8821 124.411 42.7025 124.25 42.5509C124.099 42.3914 123.918 42.2677 123.71 42.1799C123.501 42.0921 123.277 42.0483 123.036 42.0483H118.333V38.6136H123.036C123.277 38.6136 123.501 38.5697 123.71 38.4819C123.918 38.3942 124.099 38.2745 124.25 38.1229C124.411 37.9634 124.536 37.7799 124.624 37.5724C124.712 37.357 124.756 37.1296 124.756 36.8902C124.756 36.6509 124.712 36.4275 124.624 36.2201C124.536 36.0126 124.411 35.8331 124.25 35.6815C124.099 35.5219 123.918 35.3982 123.71 35.3105C123.501 35.2227 123.277 35.1789 123.036 35.1789H116.132V31.7441H123.036C123.749 31.7441 124.419 31.8797 125.044 32.151C125.67 32.4223 126.215 32.7933 126.681 33.2641C127.154 33.7268 127.527 34.2693 127.8 34.8917C128.072 35.5139 128.208 36.1802 128.208 36.8902C128.208 37.5206 128.092 38.1349 127.859 38.7333C127.627 39.3237 127.298 39.8542 126.873 40.325C127.298 40.7957 127.627 41.3302 127.859 41.9287C128.092 42.5191 128.208 43.1294 128.208 43.7598Z" fill="white"/>
<path d="M144 36.8902C144 37.6003 143.864 38.2705 143.592 38.9008C143.318 39.5232 142.946 40.0697 142.473 40.5404C142.007 41.0032 141.462 41.3701 140.837 41.6414C140.211 41.9127 139.541 42.0483 138.828 42.0483H137.096C136.856 42.0483 136.631 42.0921 136.422 42.1799C136.214 42.2677 136.029 42.3914 135.869 42.5509C135.717 42.7025 135.596 42.8821 135.508 43.0894C135.42 43.297 135.376 43.5204 135.376 43.7598V45.4711H143.531V48.9058H131.924V43.7598C131.924 43.0496 132.06 42.3834 132.332 41.7611C132.605 41.1308 132.974 40.5843 133.439 40.1215C133.912 39.6508 134.461 39.2838 135.087 39.0205C135.713 38.7492 136.382 38.6136 137.096 38.6136H138.828C139.069 38.6136 139.293 38.5697 139.501 38.4819C139.71 38.3942 139.89 38.2745 140.043 38.1229C140.203 37.9634 140.328 37.7799 140.416 37.5724C140.504 37.357 140.548 37.1296 140.548 36.8902C140.548 36.6509 140.504 36.4275 140.416 36.2201C140.328 36.0126 140.203 35.8331 140.043 35.6815C139.89 35.5219 139.71 35.3982 139.501 35.3105C139.293 35.2227 139.069 35.1789 138.828 35.1789H132.67V31.7441H138.828C139.541 31.7441 140.211 31.8797 140.837 32.151C141.462 32.4223 142.007 32.7933 142.473 33.2641C142.946 33.7268 143.318 34.2693 143.592 34.8917C143.864 35.5139 144 36.1802 144 36.8902Z" fill="white"/>
<path fill-rule="evenodd" clip-rule="evenodd" d="M84.7708 39.2429C86.2373 38.5775 86.8906 37.4061 86.7308 35.7289C86.6782 35.1208 86.5047 34.5904 86.21 34.1377C85.9159 33.685 85.5152 33.3173 85.0087 33.0345C84.5019 32.7517 83.9504 32.5322 83.3542 32.3761C82.7583 32.2199 82.0735 32.1009 81.3003 32.0189L81.3348 28.5438L79.072 28.4922L79.0385 31.8708C78.6466 31.8619 78.0491 31.8574 77.2453 31.8575L77.2792 28.4514L75.0166 28.3998L74.982 31.8749C74.6585 31.8768 74.1834 31.8705 73.5565 31.8562L70.4418 31.7714L70.4191 34.033L72.0503 34.0702C72.7946 34.0872 73.2274 34.4097 73.3487 35.0378L73.3094 38.9955L73.3103 38.9956V39.0093H73.309L73.2542 44.5529C73.1713 45.02 72.8847 45.248 72.3951 45.2368L70.7641 45.1996L70.2833 47.7128L73.2222 47.78C73.4085 47.784 73.6777 47.7926 74.0303 47.8051C74.3828 47.8178 74.6475 47.8262 74.8238 47.8302L74.7891 51.3467L77.0519 51.3984L77.0862 47.9232C77.4976 47.9416 78.095 47.9599 78.8786 47.9778L78.8445 51.439L81.1073 51.4907L81.1421 47.9742C81.9457 47.9556 82.6593 47.903 83.282 47.8161C83.9053 47.729 84.5019 47.584 85.0719 47.381C85.6424 47.1778 86.1203 46.9197 86.5053 46.6068C86.8906 46.2936 87.2104 45.8917 87.4654 45.4009C87.7199 44.9101 87.8848 44.3393 87.9599 43.6881C88.1001 42.413 87.8895 41.4243 87.3281 40.7219C86.7665 40.0194 85.9141 39.5265 84.7708 39.2429ZM83.2498 42.2973C83.3935 42.5569 83.4641 42.8515 83.4607 43.181C83.4583 43.4373 83.4095 43.6696 83.3147 43.8781C83.2196 44.0864 83.0983 44.2668 82.95 44.4191C82.8022 44.5714 82.6076 44.7041 82.3675 44.8176C82.1268 44.9312 81.8939 45.0222 81.6685 45.0901C81.443 45.1583 81.1715 45.2162 80.8533 45.2639C80.5354 45.3116 80.2567 45.3441 80.0172 45.3615C79.7778 45.379 79.4918 45.3908 79.1594 45.3971C78.8274 45.4032 78.5682 45.4041 78.383 45.3998C78.1972 45.3957 77.9628 45.388 77.6796 45.377C77.3964 45.366 77.2158 45.3596 77.1374 45.3579L77.1838 40.7174C77.262 40.7193 77.494 40.7199 77.8798 40.7196C78.2656 40.7192 78.5807 40.7217 78.825 40.7273C79.0692 40.7329 79.4059 40.7543 79.8354 40.7915C80.265 40.8288 80.6261 40.8782 80.9182 40.9397C81.211 41.0013 81.5299 41.0933 81.8756 41.2156C82.2211 41.3379 82.5006 41.4839 82.7138 41.6535C82.9271 41.8231 83.1056 42.0377 83.2498 42.2973ZM82.346 35.7491C82.4659 35.9854 82.5242 36.2548 82.5211 36.5571C82.5185 36.8136 82.4723 37.0462 82.3823 37.2548C82.2923 37.4635 82.1585 37.6369 81.9815 37.7748C81.8041 37.9128 81.6219 38.0323 81.4354 38.1335C81.2487 38.2346 81.0111 38.3139 80.7218 38.3714C80.4333 38.429 80.1812 38.4737 79.9657 38.5054C79.7503 38.5372 79.4814 38.5562 79.1587 38.5626C78.8363 38.5691 78.5922 38.5726 78.4259 38.5735C78.2597 38.5742 78.0327 38.5691 77.7441 38.558C77.4562 38.5468 77.2874 38.5406 77.2386 38.5395L77.2805 34.3213C77.3491 34.3228 77.5421 34.3249 77.8598 34.3276C78.1771 34.3302 78.441 34.3316 78.6513 34.3319C78.8613 34.3321 79.1445 34.35 79.5009 34.3856C79.8574 34.4211 80.1572 34.4646 80.4013 34.5161C80.6448 34.5674 80.9129 34.6491 81.2049 34.7611C81.4969 34.8731 81.7303 35.0067 81.9047 35.1618C82.0791 35.317 82.2262 35.5127 82.346 35.7491Z" fill="white"/>
<path fill-rule="evenodd" clip-rule="evenodd" d="M54.1902 28.9913C53.7501 28.7385 53.2079 28.7385 52.768 28.9913L44.308 33.8509C43.868 34.1036 43.5969 34.5708 43.5969 35.0763V44.7955C43.5969 45.3011 43.868 45.7682 44.308 46.0209L44.8118 46.3104C44.8091 46.3074 44.8079 46.3051 44.8084 46.3037C44.9273 45.9945 45.2109 45.228 45.3252 44.9142C45.4303 44.6368 45.6315 44.4866 45.9103 44.4047C46.2883 44.2957 46.6622 44.1782 47.036 44.061C47.2229 44.0026 47.4098 43.9438 47.5972 43.8862C47.771 43.834 47.9458 43.7851 48.1207 43.7361C48.2956 43.6872 48.4704 43.6385 48.6442 43.586C48.8476 43.5247 49.0487 43.4611 49.2499 43.3974C49.451 43.3337 49.6522 43.27 49.8556 43.2085C50.0631 43.1453 50.2719 43.0849 50.4813 43.024C50.664 42.9711 50.8473 42.918 51.0305 42.8629C51.2865 42.7855 51.5414 42.7049 51.7963 42.624C52.0511 42.5433 52.3059 42.4625 52.5619 42.3853C52.6541 42.3582 52.7482 42.3358 52.8425 42.3134C52.9539 42.287 53.0655 42.2605 53.1745 42.2261C53.3687 42.1646 53.5619 42.101 53.7551 42.0373C53.9483 41.9737 54.1414 41.91 54.3357 41.8486C54.4598 41.8074 54.5863 41.7707 54.7132 41.7337C54.7687 41.7176 54.8241 41.7014 54.8798 41.6848C55.1907 41.5938 55.4695 41.4483 55.7165 41.2391L56.3368 39.8539L54.3357 39.3105C54.1798 39.3614 54.0206 39.4012 53.8611 39.4411C53.7494 39.4691 53.6377 39.4971 53.5265 39.5289C53.2192 39.6138 52.9131 39.7013 52.6076 39.7887C52.3407 39.8651 52.0741 39.9413 51.8078 40.0156C51.5805 40.0785 51.3521 40.1354 51.1232 40.1925C50.9053 40.2468 50.6867 40.3013 50.4682 40.3613C50.1871 40.4386 49.9082 40.5193 49.6293 40.6C49.3504 40.6808 49.0716 40.7615 48.7904 40.8388C48.4979 40.9177 48.2052 40.9925 47.9127 41.0673C47.7664 41.1047 47.6201 41.1421 47.4738 41.1799C47.2772 41.23 47.0807 41.28 46.8795 41.33C46.857 41.3357 46.8344 41.3361 46.8044 41.3366C46.7858 41.337 46.7641 41.3374 46.7378 41.3391C46.742 41.3083 46.745 41.2783 46.7478 41.2492C46.7541 41.1843 46.76 41.1243 46.779 41.0708C46.9435 40.625 47.1127 40.1838 47.2818 39.7427C47.387 39.4606 47.4933 39.1798 47.5996 38.8989C47.7059 38.6181 47.8121 38.3372 47.9173 38.0552C47.9386 37.996 47.961 37.9375 47.9833 37.8788C48.028 37.7616 48.0727 37.6443 48.1093 37.523C48.1961 37.2365 48.3699 37.0591 48.667 36.9955C49.0281 36.9182 49.3893 36.8271 49.7459 36.7361C49.9497 36.6855 50.1534 36.6323 50.3572 36.5791C50.6288 36.5082 50.9005 36.4372 51.1722 36.3723C51.41 36.3132 51.6487 36.2586 51.8876 36.204C52.1265 36.1495 52.3653 36.0948 52.6031 36.0357C52.882 35.9675 53.1608 35.8993 53.4259 35.7946C53.8876 35.6127 54.1986 35.1943 54.0936 34.6667C53.9929 34.1845 53.6316 33.8525 53.1516 33.8934C52.3813 33.9686 51.6193 34.138 50.8635 34.3061C50.7865 34.3233 50.7096 34.3404 50.6328 34.3574C50.2461 34.4433 49.8594 34.5353 49.4576 34.6309C49.3701 34.6518 49.2818 34.6728 49.1928 34.6939C49.198 34.6729 49.2029 34.6519 49.2078 34.6311C49.2197 34.5799 49.2313 34.53 49.2476 34.4847C49.3763 34.1432 49.5078 33.8045 49.6399 33.4642C49.6767 33.3694 49.7136 33.2744 49.7505 33.1793C49.8441 32.9383 49.9368 32.696 50.0293 32.4538C50.1219 32.2117 50.2145 31.9694 50.3082 31.7284C50.3813 31.5464 50.5642 31.4964 50.7288 31.46C51.1265 31.3645 51.5241 31.2827 51.9265 31.2008C52.1048 31.1643 52.2831 31.1314 52.4614 31.0984C52.6396 31.0654 52.8179 31.0325 52.9962 30.9961C53.1088 30.9723 53.2208 30.9448 53.3329 30.9172C53.5211 30.8708 53.7095 30.8245 53.9015 30.7959C54.1941 30.755 54.4821 30.7596 54.7792 30.8414C55.1861 30.9551 55.5015 31.1871 55.762 31.4919C56.113 31.8973 56.4555 32.3137 56.7985 32.7305C56.8977 32.8513 56.9972 32.9722 57.0969 33.0929C57.1883 33.2032 57.2804 33.3129 57.3724 33.4226C57.6485 33.7518 57.9245 34.0811 58.185 34.4256C58.5003 34.844 58.4501 35.1215 58.1757 35.5445C58.0963 35.6661 58.0046 35.7775 57.9034 35.9006C57.8532 35.9617 57.8006 36.0255 57.7462 36.0948C57.8099 36.107 57.8729 36.1189 57.9355 36.1306C58.9664 36.3248 59.8308 36.4876 60.4617 37.4821C60.7833 37.9878 61.1142 38.4883 61.4451 38.989C61.6495 39.2989 61.8545 39.6088 62.0572 39.92C62.281 40.2657 62.5051 40.625 62.6102 41.0253C62.7749 41.6484 62.7337 42.2489 62.3175 42.79C62.0298 43.1585 61.6547 43.4087 61.2342 43.5815C60.8196 43.7514 60.4011 43.909 59.9825 44.0666C59.7734 44.1456 59.564 44.2243 59.3553 44.3047C59.0689 44.4163 58.7835 44.5286 58.498 44.6411C58.1312 44.7856 57.7641 44.9301 57.3942 45.0734C57.0758 45.1962 56.7576 45.314 56.4395 45.4321C56.2273 45.5106 56.0154 45.5891 55.8032 45.6693C55.5109 45.7805 55.2187 45.896 54.9258 46.0117C54.6916 46.1042 54.457 46.1968 54.2215 46.2878C54.0135 46.3674 53.8056 46.4446 53.5975 46.522C53.3895 46.5992 53.1814 46.6767 52.9733 46.7563C52.7655 46.8358 52.5584 46.9167 52.3517 46.9974C52.1449 47.0782 51.9379 47.1588 51.7299 47.2384C51.5286 47.3158 51.3277 47.3906 51.1265 47.4659C50.9253 47.5408 50.7242 47.6159 50.523 47.6932C50.3741 47.7498 50.1204 47.8449 49.8387 47.9503C49.5223 48.0688 49.1706 48.2006 48.8921 48.306C48.8274 48.3312 48.7603 48.3574 48.6907 48.3845C48.7348 48.3681 48.7248 48.3724 48.5309 48.4466L52.768 50.8805C53.2079 51.1332 53.7501 51.1332 54.1902 50.8805L62.6501 46.0209C63.0902 45.7682 63.3611 45.3011 63.3611 44.7955V35.0763C63.3611 34.5708 63.0902 34.1036 62.6501 33.8509L54.1902 28.9913ZM48.5285 48.4454C48.5427 48.4399 48.5764 48.4273 48.611 48.4141C48.6295 48.4071 48.6436 48.4015 48.6436 48.4015C48.6436 48.4015 48.6148 48.4125 48.5285 48.4454ZM48.5285 48.4454C48.5381 48.4415 48.5574 48.4339 48.5848 48.4234C48.5648 48.4311 48.546 48.4384 48.5285 48.4454Z" fill="white"/>
<path fill-rule="evenodd" clip-rule="evenodd" d="M42.2889 41.3937C42.2889 41.3127 42.223 41.2471 42.1416 41.2471C42.0602 41.2471 41.9943 41.3127 41.9943 41.3937V45.311C41.9943 45.9973 42.3634 46.6313 42.962 46.9727L52.6872 52.5189C52.7578 52.5589 52.8478 52.5346 52.8881 52.4647C52.9288 52.3942 52.9041 52.3047 52.8336 52.2645L43.1085 46.7184C42.6016 46.4292 42.2889 45.8923 42.2889 45.311V41.3937ZM64.7926 41.4005C64.7926 41.3196 64.7268 41.254 64.6455 41.254C64.5639 41.254 64.498 41.3196 64.498 41.4005V45.1478C64.498 45.7203 64.1948 46.2506 63.6997 46.5427L53.9059 52.3254C53.836 52.3667 53.8129 52.4563 53.8545 52.5263C53.896 52.5957 53.9864 52.6187 54.0563 52.5774L63.8499 46.795C64.4344 46.4498 64.7926 45.824 64.7926 45.1478V41.4005Z" fill="white"/>
<path fill-rule="evenodd" clip-rule="evenodd" d="M54.1263 27.3265C54.0557 27.2863 53.9656 27.3107 53.9251 27.3809C53.8847 27.4512 53.9093 27.5407 53.9799 27.5809L63.677 33.0996C64.1846 33.3885 64.4978 33.9258 64.4978 34.5077V37.6302C64.4978 37.7112 64.5639 37.7768 64.6455 37.7768C64.7268 37.7768 64.7926 37.7112 64.7926 37.6302V34.5077C64.7926 33.8207 64.4229 33.1863 63.8233 32.8452L54.1263 27.3265ZM52.8491 27.5993C52.9199 27.5595 52.9449 27.47 52.905 27.3996C52.8651 27.329 52.7751 27.3042 52.7043 27.3439L42.9732 32.8076C42.3683 33.1472 41.9943 33.7846 41.9943 34.4756V37.6198C41.9943 37.7008 42.0602 37.7664 42.1416 37.7664C42.223 37.7664 42.2889 37.7008 42.2889 37.6198V34.4756C42.2889 33.8904 42.6057 33.3505 43.118 33.0628L52.8491 27.5993Z" fill="white"/>
<path d="M50.0752 44.095L50.5699 43.1296L51.552 43.6277L52.065 42.6261L53.0225 43.1118L53.5114 42.1577L54.4818 42.65L55.3033 42.3229L56.1465 40.3616L54.5539 40.4854L45.1546 43.4576L44.8468 45.5342L48.9181 44.3692L49.1439 43.4576L50.0752 44.095Z" fill="white"/>
<path d="M65.7555 39.4861C65.7555 39.639 65.7547 39.7919 65.7562 39.9451C65.757 40.0168 65.7288 40.0695 65.6692 40.1094C65.3586 40.3169 65.0489 40.5258 64.7389 40.7341C64.6871 40.7692 64.6351 40.7692 64.5826 40.7341C64.3135 40.553 64.0446 40.3715 63.7752 40.1904C63.7335 40.1621 63.6914 40.1344 63.6494 40.107C63.5939 40.0703 63.566 40.019 63.566 39.9527C63.5671 39.762 63.568 39.5717 63.568 39.381C63.568 39.2688 63.5673 39.1566 63.566 39.0442C63.5656 38.9752 63.5926 38.9231 63.6513 38.8843C63.9267 38.7006 64.2021 38.516 64.4771 38.3312C64.5102 38.3093 64.5423 38.2868 64.5745 38.2636C64.6315 38.2226 64.6847 38.2216 64.7437 38.2612C64.8984 38.3663 65.0528 38.4717 65.2081 38.576C65.3648 38.6813 65.5222 38.786 65.6789 38.8905C65.7152 38.9144 65.7432 38.9437 65.7512 38.988C65.7532 38.9991 65.7535 39.0105 65.7535 39.0216C65.754 39.1765 65.7535 39.3313 65.7535 39.4861H65.7555ZM65.408 39.0079C65.4046 39.0049 65.4031 39.0038 65.4017 39.0027C65.3549 38.9711 65.3077 38.9394 65.2606 38.9079C65.0652 38.7772 64.8701 38.6466 64.6746 38.5157C64.6653 38.5092 64.6586 38.5087 64.6485 38.5154C64.4111 38.6751 64.1732 38.8348 63.9355 38.9942C63.9287 38.9988 63.9226 39.0037 63.9153 39.0089C63.9185 39.0116 63.9211 39.0135 63.9234 39.0152C64.163 39.1756 64.4022 39.3359 64.6413 39.4962C64.6647 39.5117 64.6569 39.5125 64.681 39.4962C64.8762 39.3656 65.0717 39.2349 65.2668 39.1039C65.3137 39.0725 65.3597 39.0407 65.408 39.0079ZM63.8172 39.2425C63.8172 39.249 63.8172 39.252 63.8172 39.2553C63.8172 39.4644 63.8177 39.6735 63.8169 39.8827C63.8169 39.9093 63.8265 39.9261 63.8481 39.9405C64.0741 40.0904 64.299 40.2409 64.5243 40.3914C64.5283 40.3941 64.5323 40.3962 64.5376 40.399C64.5378 40.3948 64.5382 40.3933 64.5382 40.3914C64.5386 40.1774 64.5386 39.9633 64.5397 39.749C64.5397 39.7319 64.533 39.7202 64.5185 39.7108C64.3461 39.5956 64.174 39.4798 64.0016 39.3644C63.9414 39.3242 63.8807 39.2843 63.8172 39.2425ZM65.5043 39.24C65.4978 39.2441 65.4905 39.2479 65.4831 39.2528C65.4311 39.2889 65.3793 39.3259 65.3264 39.3615C65.1516 39.4791 64.9761 39.5964 64.8007 39.7135C64.7866 39.723 64.7814 39.7346 64.7814 39.751C64.7823 39.8139 64.7829 39.8767 64.7832 39.9397C64.7836 40.0606 64.7836 40.1814 64.7836 40.3022C64.7836 40.334 64.7836 40.3661 64.7836 40.4C64.7899 40.396 64.7942 40.3936 64.798 40.3908C65.0255 40.2387 65.253 40.0864 65.4805 39.9348C65.4983 39.9231 65.5051 39.9106 65.5051 39.8895C65.5043 39.6966 65.5043 39.5041 65.5039 39.3112C65.5043 39.2876 65.5043 39.2642 65.5043 39.24Z" fill="white"/>
<path d="M43.2072 39.4861C43.2072 39.639 43.2061 39.7919 43.2077 39.9451C43.2085 40.0168 43.1804 40.0695 43.121 40.1094C42.8102 40.3169 42.5004 40.5258 42.1906 40.7341C42.1387 40.7692 42.0866 40.7692 42.0342 40.7341C41.7649 40.553 41.4961 40.3715 41.227 40.1904C41.1852 40.1621 41.1431 40.1344 41.1011 40.107C41.0454 40.0703 41.0178 40.019 41.0178 39.9527C41.0187 39.762 41.0195 39.5717 41.0198 39.381C41.0198 39.2688 41.019 39.1566 41.0178 39.0442C41.017 38.9752 41.0443 38.9231 41.1028 38.8843C41.3785 38.7006 41.6536 38.516 41.9288 38.3312C41.9616 38.3093 41.994 38.2868 42.026 38.2636C42.083 38.2226 42.1365 38.2216 42.1953 38.2612C42.35 38.3663 42.5045 38.4717 42.6598 38.576C42.8165 38.6813 42.9738 38.786 43.1308 38.8905C43.1668 38.9144 43.1949 38.9437 43.2028 38.988C43.2047 38.9991 43.2053 39.0105 43.2053 39.0216C43.2055 39.1765 43.2053 39.3313 43.2053 39.4861H43.2072ZM42.8596 39.0079C42.8561 39.0049 42.8547 39.0038 42.8534 39.0027C42.8064 38.9711 42.7592 38.9394 42.7122 38.9079C42.5168 38.7772 42.3216 38.6466 42.1264 38.5157C42.1169 38.5092 42.11 38.5087 42.1002 38.5154C41.8628 38.6751 41.6247 38.8348 41.3872 38.9942C41.3804 38.9988 41.3741 39.0037 41.3667 39.0089C41.3703 39.0116 41.3728 39.0135 41.3752 39.0152C41.6146 39.1756 41.8537 39.3359 42.0931 39.4962C42.1163 39.5117 42.1087 39.5125 42.1327 39.4962C42.3279 39.3656 42.5234 39.2349 42.7185 39.1039C42.7652 39.0725 42.8113 39.0407 42.8596 39.0079ZM41.269 39.2425C41.269 39.249 41.269 39.252 41.269 39.2553C41.269 39.4644 41.2693 39.6735 41.2684 39.8827C41.2684 39.9093 41.278 39.9261 41.2998 39.9405C41.5256 40.0904 41.7508 40.2409 41.9761 40.3914C41.9798 40.3941 41.9839 40.3962 41.9891 40.399C41.9894 40.3948 41.9897 40.3933 41.9897 40.3914C41.9902 40.1774 41.9905 39.9633 41.9913 39.749C41.9913 39.7319 41.9844 39.7202 41.9703 39.7108C41.7978 39.5956 41.6258 39.4798 41.4532 39.3644C41.3932 39.3242 41.3323 39.2843 41.269 39.2425ZM42.956 39.24C42.9495 39.2441 42.9421 39.2479 42.935 39.2528C42.8829 39.2889 42.831 39.3259 42.7783 39.3615C42.6031 39.4791 42.4278 39.5964 42.2522 39.7135C42.2381 39.723 42.2329 39.7346 42.2332 39.751C42.234 39.8139 42.2345 39.8767 42.2348 39.9397C42.2351 40.0606 42.2351 40.1814 42.2351 40.3022C42.2351 40.334 42.2351 40.3661 42.2351 40.4C42.2417 40.396 42.2458 40.3936 42.2498 40.3908C42.4772 40.2387 42.7046 40.0864 42.9323 39.9348C42.9498 39.9231 42.9569 39.9106 42.9569 39.8895C42.956 39.6966 42.956 39.5041 42.9557 39.3112C42.956 39.2876 42.956 39.2642 42.956 39.24Z" fill="white"/>
<path d="M52.5315 53.1368C52.5367 53.1338 52.5402 53.1323 52.5434 53.1301C52.7306 53.0048 52.9179 52.8796 53.105 52.7542C53.1594 52.7178 53.2134 52.6813 53.2682 52.6452C53.2805 52.6372 53.2863 52.6277 53.2863 52.6129C53.2859 52.5286 53.2865 52.4445 53.2865 52.3607C53.2865 52.2217 53.2865 52.0823 53.2865 51.9434C53.2865 51.938 53.2865 51.9327 53.2865 51.9241C53.2662 51.9372 53.249 51.9483 53.232 51.9598C53.1305 52.0277 53.0291 52.0961 52.9274 52.163C52.8693 52.2017 52.8052 52.1996 52.7569 52.1589C52.699 52.1101 52.6984 52.0107 52.759 51.966C52.8341 51.9107 52.9114 51.8595 52.9887 51.8075C53.1044 51.7296 53.2205 51.6526 53.3366 51.5752C53.3869 51.5415 53.4389 51.5412 53.489 51.5746C53.6729 51.6969 53.8573 51.82 54.0414 51.9434C54.0798 51.9692 54.1074 52.0024 54.1126 52.0505C54.1208 52.1266 54.045 52.2165 53.9494 52.1841C53.919 52.1738 53.8898 52.1567 53.8628 52.1391C53.7599 52.0716 53.6582 52.0021 53.5563 51.9335C53.552 51.9307 53.5477 51.9279 53.5419 51.9242C53.5414 51.9305 53.5408 51.9346 53.5408 51.9387C53.5406 52.1621 53.5406 52.3858 53.5399 52.6092C53.5399 52.6237 53.5442 52.6329 53.5563 52.6411C53.7996 52.8036 54.0424 52.9669 54.2855 53.1299C54.288 53.1314 54.2907 53.133 54.2956 53.1355C54.2956 53.1286 54.2956 53.1235 54.2956 53.1183C54.2956 52.9456 54.2956 52.7727 54.296 52.6002C54.296 52.5654 54.304 52.5324 54.3247 52.5037C54.3567 52.4598 54.402 52.4493 54.4529 52.4583C54.5011 52.4664 54.5328 52.4961 54.5475 52.5417C54.5533 52.5595 54.5564 52.5796 54.5564 52.5983C54.557 52.8469 54.5564 53.0952 54.5574 53.3443C54.5576 53.4181 54.5272 53.473 54.4663 53.5136C54.2753 53.6416 54.085 53.7701 53.8942 53.8981C53.7591 53.9887 53.6239 54.079 53.4888 54.1691C53.4387 54.2027 53.386 54.2018 53.3338 54.1667C53.1843 54.0659 53.0347 53.9654 52.8848 53.8648C52.7092 53.7471 52.5335 53.6288 52.3572 53.5107C52.2969 53.4705 52.2688 53.4146 52.2693 53.343C52.2703 53.1611 52.2703 52.9794 52.271 52.7974C52.2713 52.7254 52.2704 52.654 52.2713 52.582C52.2723 52.5196 52.311 52.4722 52.369 52.4591C52.4497 52.4406 52.5264 52.4959 52.5294 52.578C52.5322 52.6529 52.5302 52.7275 52.5302 52.8026C52.5302 52.9086 52.5302 53.0142 52.5302 53.1205C52.5307 53.1252 52.5309 53.1301 52.5315 53.1368ZM54.1931 53.3828C54.1873 53.3785 54.1845 53.3764 54.1817 53.3742C53.9312 53.2063 53.6807 53.0379 53.4307 52.8695C53.4189 52.8617 53.4113 52.8608 53.3988 52.869C53.1769 53.0187 52.9548 53.1674 52.7327 53.317C52.7007 53.3383 52.6688 53.36 52.6356 53.3824C52.8961 53.5581 53.1551 53.7325 53.4141 53.9069C53.674 53.7323 53.9326 53.5581 54.1931 53.3828Z" fill="white"/>
<path d="M54.2941 26.7505C54.2889 26.7536 54.2857 26.7551 54.2823 26.7573C54.0951 26.8825 53.9077 27.0079 53.7206 27.1332C53.6663 27.1695 53.6123 27.2062 53.5576 27.2423C53.5453 27.2502 53.5395 27.2597 53.5395 27.2747C53.5398 27.3587 53.5391 27.4428 53.5391 27.5269C53.5391 27.6659 53.5391 27.8049 53.5391 27.944C53.5391 27.9495 53.5391 27.955 53.5391 27.9636C53.5594 27.9504 53.5767 27.9391 53.594 27.9275C53.6952 27.8596 53.7966 27.7915 53.8983 27.7242C53.9563 27.6858 54.0204 27.6879 54.0688 27.7285C54.1268 27.7774 54.1274 27.8767 54.0666 27.9217C53.9917 27.9767 53.9142 28.028 53.8372 28.08C53.7213 28.1579 53.6051 28.2349 53.489 28.3123C53.4388 28.3459 53.3867 28.3462 53.3366 28.3129C53.1528 28.1906 52.9684 28.0675 52.7845 27.944C52.7461 27.9183 52.7185 27.885 52.7131 27.837C52.7049 27.761 52.7809 27.6711 52.8763 27.7035C52.9067 27.7138 52.9358 27.7307 52.9628 27.7484C53.0657 27.8159 53.1674 27.8853 53.2695 27.9541C53.2738 27.9568 53.2781 27.9596 53.284 27.9632C53.2842 27.9571 53.2849 27.9528 53.2849 27.9489C53.2851 27.7252 53.2851 27.5018 53.2857 27.278C53.2857 27.264 53.2814 27.2545 53.2695 27.2462C53.0263 27.0837 52.7832 26.9205 52.5402 26.7576C52.5378 26.7561 52.535 26.7545 52.5301 26.7518C52.5301 26.7588 52.5301 26.764 52.5301 26.7692C52.5301 26.9418 52.5301 27.1145 52.5298 27.2872C52.5298 27.322 52.5218 27.355 52.5009 27.3838C52.469 27.4278 52.4239 27.4382 52.3729 27.4293C52.3246 27.4211 52.2928 27.3914 52.2782 27.3459C52.2724 27.3278 52.2693 27.308 52.2693 27.289C52.2687 27.0406 52.2693 26.7921 52.2684 26.5434C52.268 26.4694 52.2985 26.4146 52.3593 26.374C52.5504 26.246 52.7407 26.1173 52.9315 25.9892C53.0666 25.8987 53.202 25.8086 53.3371 25.7184C53.3871 25.6848 53.4396 25.6858 53.4918 25.7209C53.6414 25.8214 53.791 25.922 53.941 26.0225C54.1167 26.1405 54.2924 26.2588 54.4687 26.3768C54.5289 26.4171 54.5568 26.4727 54.5566 26.5446C54.5553 26.7264 54.5553 26.9082 54.5547 27.0901C54.5544 27.1619 54.5553 27.2337 54.5544 27.3056C54.5535 27.3679 54.5147 27.4152 54.4566 27.4284C54.3759 27.4468 54.2995 27.3917 54.2963 27.3095C54.2937 27.2347 54.2954 27.1598 54.2954 27.0849C54.2954 26.9789 54.2954 26.873 54.2954 26.7671C54.2952 26.7622 54.2948 26.7573 54.2941 26.7505ZM52.6326 26.5048C52.6386 26.5088 52.6412 26.5109 52.644 26.5131C52.8944 26.6812 53.145 26.8496 53.3951 27.0179C53.4068 27.0258 53.4144 27.0268 53.4271 27.0185C53.6488 26.8688 53.8708 26.7199 54.093 26.5705C54.1249 26.5491 54.1568 26.5274 54.1901 26.5051C53.9295 26.3294 53.6706 26.1549 53.4117 25.9803C53.1519 26.1552 52.8931 26.3294 52.6326 26.5048Z" fill="white"/>
</svg>
