<svg width="897" height="468" viewBox="0 0 897 468" fill="none" xmlns="http://www.w3.org/2000/svg">
<path d="M892.336 86.0954C900.587 110.908 896.115 138.698 880.869 167.746C865.621 196.795 839.616 227.061 804.884 256.777C735.422 316.207 631.131 373.371 508.474 414.157C385.817 454.944 268.062 471.617 176.842 465.617C131.231 462.617 92.2805 453.951 62.6735 439.817C33.0682 425.684 12.8451 406.106 4.59414 381.293C-3.65683 356.48 0.815067 328.69 16.0617 299.643C31.3093 270.594 57.314 240.328 92.0463 210.612C161.509 151.181 265.8 94.0177 388.456 53.231C511.113 12.4444 628.868 -4.22819 720.088 1.7712C765.699 4.77099 804.65 13.4374 834.257 27.5712C863.862 41.7041 884.085 61.2824 892.336 86.0954Z" stroke="url(#paint0_linear_7291_46331)" stroke-opacity="0.3"/>
<defs>
<linearGradient id="paint0_linear_7291_46331" x1="486.21" y1="428.496" x2="380.652" y2="38.5972" gradientUnits="userSpaceOnUse">
<stop stop-color="white"/>
<stop offset="1" stop-color="white" stop-opacity="0"/>
</linearGradient>
</defs>
</svg>
