<svg width="26" height="26" viewBox="0 0 26 26" fill="none" xmlns="http://www.w3.org/2000/svg">
<g clip-path="url(#clip0_2949_41489)">
<path d="M16.6812 18.1465H9.32422V25.5034H16.6812V18.1465Z" fill="white"/>
<path d="M16.6812 9.32227H9.32422V16.6792H16.6812V9.32227Z" fill="white"/>
<path d="M25.4897 0.503906H18.1328V7.86035H25.4897V0.503906Z" fill="white"/>
<path opacity="0.5" d="M7.84912 9.32538H0.492188V16.6823H7.84912V9.32538Z" fill="white"/>
<path d="M25.4897 9.32227H18.1328V16.6792H25.4897V9.32227Z" fill="white"/>
<path d="M7.84912 18.1465H0.492188V25.5034H7.84912V18.1465Z" fill="white"/>
<path opacity="0.5" d="M25.4897 18.1465H18.1328V25.5034H25.4897V18.1465Z" fill="white"/>
<path opacity="0.5" d="M7.84912 0.503906H0.492188V7.86035H7.84912V0.503906Z" fill="white"/>
<path opacity="0.5" d="M16.6812 0.503906H9.32422V7.86035H16.6812V0.503906Z" fill="white"/>
</g>
<defs>
<clipPath id="clip0_2949_41489">
<rect width="25" height="25" fill="white" transform="translate(0.5 0.5)"/>
</clipPath>
</defs>
</svg>
