<svg width="30" height="30" viewBox="0 0 30 30" fill="none" xmlns="http://www.w3.org/2000/svg">
<path d="M15.8841 13.1L15.0003 13.9825C14.7697 14.2213 14.4938 14.4117 14.1888 14.5428C13.8838 14.6738 13.5558 14.7427 13.2238 14.7456C12.8919 14.7485 12.5627 14.6853 12.2554 14.5596C11.9482 14.4339 11.669 14.2482 11.4343 14.0135C11.1996 13.7788 11.014 13.4996 10.8882 13.1924C10.7625 12.8852 10.6993 12.556 10.7022 12.224C10.7051 11.8921 10.774 11.564 10.9051 11.259C11.0361 10.954 11.2265 10.6781 11.4653 10.4475L18.5028 3.40751C20.169 3.02854 21.9122 3.1845 23.4846 3.85322C25.057 4.52194 26.3786 5.66938 27.2614 7.13237C28.1442 8.59536 28.5433 10.2994 28.402 12.0023C28.2606 13.7051 27.586 15.3201 26.4741 16.6175L24.2816 18.8388C24.2236 18.8975 24.1546 18.9442 24.0785 18.9761C24.0025 19.0081 23.9208 19.0246 23.8383 19.0249C23.7558 19.0251 23.6741 19.009 23.5978 18.9775C23.5216 18.946 23.4523 18.8997 23.3941 18.8413L17.6516 13.0988C17.417 12.8646 17.099 12.7332 16.7675 12.7334C16.4361 12.7336 16.1183 12.8655 15.8841 13.1ZM13.9628 4.41251L9.69655 8.68001C8.77255 9.60217 8.24584 10.8491 8.22897 12.1545C8.21211 13.4598 8.70642 14.7199 9.60628 15.6657C10.5061 16.6114 11.7402 17.1677 13.0447 17.2157C14.3493 17.2637 15.6209 16.7996 16.5878 15.9225L16.7678 15.7513L21.6303 20.6113C21.6885 20.6693 21.7347 20.7383 21.7662 20.8142C21.7977 20.8901 21.8139 20.9715 21.8139 21.0538C21.8139 21.136 21.7977 21.2174 21.7662 21.2933C21.7347 21.3692 21.6885 21.4382 21.6303 21.4963L16.7678 26.3575C16.299 26.8262 15.6632 27.0895 15.0003 27.0895C14.3374 27.0895 13.7016 26.8262 13.2328 26.3575L3.9503 17.075C2.5387 15.6673 1.69387 13.7898 1.57658 11.7998C1.45929 9.80971 2.07773 7.84597 3.3142 6.28223C4.55068 4.7185 6.3189 3.66392 8.28238 3.31916C10.2459 2.9744 12.2676 3.36353 13.9628 4.41251Z" fill="white"/>
</svg>
